<svg xmlns="http://www.w3.org/2000/svg" id="Layer_1" viewBox="0 0 364.5 86.9"><style>.st0{fill:#009ba8}.st1{fill:#6e707c}</style><path d="M127.6 41.8c-2.1 0-8.5 13.3-15.3 13.3-4.6 0-7.3-3.3-7.3-9.2 0-20.5 21.8-38.3 25.1-38.3 3.3 0 3.8 5.4.6 12-3.1 6.6 6.3 7.9 6.3 7.9 5.7-15 5-23.3-11.1-23.3-11 0-29.8 22-29.8 39.8 0 9.3 5.5 14.1 15.1 14.1 7.5 0 21.2-16.3 16.4-16.3zM294.5 14.4c-.2-1.8 3.9-5.6 3.7-8-.3-2.4-4.7-6.1-4.7-6.1.3 2.5-4 6-3.6 9.6.1 2.4 2.5 4.7 4.6 4.5zM265.3 14.4c-.6 1.9-4.3 5.8-6.8 13.4-5.9 6.6-19.2 11.2-19.2 13.3 0 .7.5 1.2 1.2 1.2 2.4 0 17.7-10.8 17.7-10.8 0 10.4-3.4 22.7-8.6 22.7-1.8 0-3-.9-3-2.6 0-3.4 1.9-3.6 1.9-6.1 0-1-.5-1.7-1.7-1.7-1.5 0-2.5 2.9-2.5 5.3 0 4.5 2.2 9.1 8.2 9.1 10.3 0 15.3-13.1 15.3-25.7 0-7.7 3.8-8.4 3.8-11.8 0-4.6-6.3-6.3-6.3-6.3zM165.2 38.1l-1.9 2.5c-5.8 8.3-10.8 15.1-12.9 15.1-2.1 0 7.7-14.1 7.7-19.4s-3.3-3.9-3.3-9.4 1.3-4.3 1.3-10.1c0-2.7-9.3-.6-9.3-.6s-2.7 3.7-2.7 9.7C134 49 121.4 55.8 121.4 57.7c0 .8 1.2 1.1 2.5 1.1 5.6 0 20.6-29.3 22.9-29.3 1 0 2.6 1.7 2.6 5.3s-7.3 12.8-7.3 18.8c0 2.8 4.7 4.4 7.3 4.4 2.6 0 9.6-7.8 13.5-13.3 6.9-8.8 5.1-10.5 2.3-6.6z" class="st0"/><path d="M172.4 55.4c-1.8 0-2.8-.9-2.8-3.2 0-2.9 1.7-7.5 4.2-12.4h.2c7.1 0 21.1-7 21.1-16.1 0-3.4-4.8-8.3-7.9-8.3-7.9 0-17.5 11.9-22 22.8l-2.1 6.8a17 17 0 0 0-.4 3.8c0 5.1 1.8 9.5 8.4 9.5 6.8 0 13.1-8.9 21.1-18.9l2.3-5.3c-6 6.8-16.5 21.3-22.1 21.3zm17.7-35.3c4.3 0-10.1 17.3-15.2 17.6 4.8-8.8 11.7-17.6 15.2-17.6z" class="st0"/><path d="M199.5 55.4c-1.8 0-2.8-.9-2.8-3.2 0-2.9 1.7-7.5 4.2-12.4h.2c7.1 0 21.1-7 21.1-16.1 0-3.4-4.8-8.3-7.9-8.3-7.9 0-17.5 11.9-22 22.8l-2.1 6.8a17 17 0 0 0-.4 3.8c0 5.1 1.8 9.5 8.4 9.5 6.8 0 17.9-14.1 25.9-24.1l2.3-5.3c-6 6.8-21.3 26.5-26.9 26.5zm17.7-35.3c4.3 0-10.1 17.3-15.2 17.6 4.8-8.8 11.7-17.6 15.2-17.6zM341.7 55.4c-1.8 0-2.8-.9-2.8-3.2 0-2.9 1.7-7.5 4.2-12.4h.2c7.1 0 21.1-7 21.1-16.1 0-3.4-4.8-8.3-7.9-8.3-7.9 0-17.5 11.9-22 22.8l-2.1 6.8a17 17 0 0 0-.4 3.8c0 5.1 1.8 9.5 8.4 9.5 6.8 0 16.1-8.1 19.7-12.8s2.3-5.3 2.3-5.3c-6 6.8-15.2 15.2-20.7 15.2zm17.7-35.3c4.3 0-10.1 17.3-15.2 17.6 4.8-8.8 11.6-17.6 15.2-17.6z" class="st0"/><path d="M220.6 38.9a51.5 51.5 0 0 0-5.8 13.3c0 5.7 5.1 6.1 5.1 6.1 0-3 3.2-10 7.2-18 .7 3.8 2.9 10 3.9 13.2 1.6 4.6 6.8 4.6 7.7 4.6 1.6 0-4.7-13-5.7-21 7.7-4.3 20.3-12.1 20.3-16.9 0-4.8-4.8-4.8-4.8-4.8 0 3.8-11.4 11.5-16.1 14.4 4.9-9.7 9.4-18.8 9.4-22.3 0-6.3-4.4-6.8-4.4-6.8 0 6.2-7.2 19.9-13.5 31.7M296.2 35.2l-.7.8c-3.2 4.5-16.5 20.2-19.7 20.2-.7 0-1.5-1-1.5-1.9 0-6.6 15.6-24.8 15.6-32.3 0-3.9-1.4-6.7-5.3-6.7 0 4.8-16.7 28.4-16.7 35.7 0 4.3 3.2 7.2 6.3 7.2 6.9 0 16.7-13.2 20.3-17.7 5.2-7.5 1.7-5.3 1.7-5.3z" class="st0"/><path d="M335.4 37.2c-2 2.7-12.9 17.3-15.5 17.3-1.3 0-1.8-1-1.8-2.4 0-7.5 20.4-35.9 20.4-44.6 0-6.3-4.4-6.8-4.4-6.8 0 4.8-6.3 16.8-11.3 26.3-.8-4.7-5.9-11.6-9-11.6-6.7 0-22.7 18.2-22.7 37.2 0 2.4 3 5.6 7.3 5.6 7 0 10.6-5.5 15-11.9-1.2 2.7-2 4.7-2 5.8 0 5.7 5.1 6.1 5.1 6.1 6 0 13.9-11 17.5-15.5 5.3-8.2 1.4-5.5 1.4-5.5zm-34.2 18.5c-1.2 0-2-.6-2-3.1 0-9.8 12.2-29.7 17.7-29.7 2.1 0 3 1.8 3 4.4-.1 4.3-12.5 28.4-18.7 28.4z" class="st0"/><g><path d="M96.1 77.4c0-5.2 3.9-9.5 9.4-9.5 3.4 0 5.4 1.2 7.1 2.8l-2.1 2.4c-1.5-1.4-3-2.3-5.1-2.3-3.5 0-6 2.9-6 6.4v.1c0 3.6 2.5 6.5 6 6.5 2.2 0 3.7-.9 5.2-2.4l2.1 2.1c-1.9 2-4 3.2-7.4 3.2a9 9 0 0 1-9.2-9.3zM116.2 68.2h3.2v7.6h8.7v-7.6h3.2v18.3h-3.2v-7.7h-8.7v7.7h-3.2V68.2zM135.7 78.7V68.2h3.2v10.4c0 3.4 1.7 5.2 4.6 5.2 2.8 0 4.6-1.7 4.6-5.1V68.2h3.2v10.4c0 5.5-3.1 8.2-7.8 8.2-4.8-.1-7.8-2.8-7.8-8.1zM155.7 68.2h8.1c2.3 0 4.1.7 5.3 1.8 1 1 1.5 2.3 1.5 3.9v.1c0 3-1.8 4.8-4.4 5.5l4.9 6.9h-3.8l-4.5-6.4h-4.1v6.4h-3.2V68.2zm7.9 9c2.3 0 3.8-1.2 3.8-3.1V74c0-2-1.4-3-3.8-3h-4.7v6.1h4.7zM173.8 77.4c0-5.2 3.9-9.5 9.4-9.5 3.4 0 5.4 1.2 7.1 2.8l-2.1 2.4c-1.5-1.4-3-2.3-5.1-2.3-3.5 0-6 2.9-6 6.4v.1c0 3.6 2.5 6.5 6 6.5 2.2 0 3.7-.9 5.2-2.4l2.1 2.1c-1.9 2-4 3.2-7.4 3.2a9 9 0 0 1-9.2-9.3zM193.8 68.2h3.2v7.6h8.7v-7.6h3.2v18.3h-3.2v-7.7H197v7.7h-3.2V68.2zM220.6 77.4c0-5.2 4-9.5 9.6-9.5s9.5 4.3 9.5 9.4v.1c0 5.1-4 9.4-9.6 9.4s-9.5-4.3-9.5-9.4zm15.8 0c0-3.6-2.6-6.5-6.2-6.5s-6.2 2.9-6.2 6.4v.1c0 3.5 2.6 6.5 6.2 6.5 3.6-.1 6.2-3 6.2-6.5zM243.6 68.2h13.6v2.9h-10.4v5h9.2V79h-9.2v7.4h-3.2V68.2zM267.7 77.4c0-5.2 3.9-9.5 9.4-9.5 3.4 0 5.4 1.2 7.1 2.8l-2.1 2.4c-1.5-1.4-3-2.3-5.1-2.3-3.5 0-6 2.9-6 6.4v.1c0 3.6 2.5 6.5 6 6.5 2.2 0 3.7-.9 5.2-2.4l2.1 2.1c-1.9 2-4 3.2-7.4 3.2a9 9 0 0 1-9.2-9.3zM287.8 68.2h3.2v7.6h8.7v-7.6h3.2v18.3h-3.2v-7.7H291v7.7h-3.2V68.2zM307.6 68.2h8.1c2.3 0 4.1.7 5.3 1.8 1 1 1.5 2.3 1.5 3.9v.1c0 3-1.8 4.8-4.4 5.5l4.9 6.9h-3.8l-4.5-6.4h-4.1v6.4h-3.2V68.2zm7.9 9c2.3 0 3.8-1.2 3.8-3.1V74c0-2-1.4-3-3.8-3h-4.7v6.1h4.7zM326.6 68.2h3.2v18.3h-3.2V68.2zM333.5 83.8l1.9-2.3a8.4 8.4 0 0 0 5.8 2.4c2 0 3.2-.9 3.2-2.3v-.1c0-1.3-.7-2-4.1-2.8-3.9-.9-6.1-2.1-6.1-5.5v-.1c0-3.1 2.6-5.3 6.2-5.3 2.7 0 4.8.8 6.6 2.3l-1.7 2.4a8.4 8.4 0 0 0-5-1.9c-1.9 0-3 1-3 2.2v.2c0 1.4.8 2 4.3 2.9 3.9.9 5.9 2.3 5.9 5.3v.1c0 3.4-2.7 5.5-6.5 5.5-2.7-.1-5.4-1.1-7.5-3zM355.5 71.2h-5.8v-3h14.8v3h-5.8v15.3h-3.2V71.2z" class="st1"/></g><g><linearGradient id="SVGID_1_" x1="-.7" x2="74.8" y1="28.9" y2="28.9" gradientTransform="translate(1 -.4)" gradientUnits="userSpaceOnUse"><stop offset=".3" stop-color="#009ba8"/><stop offset=".4" stop-color="#1e9fac"/><stop offset=".6" stop-color="#43acb8"/><stop offset=".9" stop-color="#69c3ce"/><stop offset="1" stop-color="#71ccd6"/></linearGradient><path fill="url(#SVGID_1_)" d="M4.9 45.6c5.9-5.9 16.7-7 28.2-7h1.2l1.4.1c14.4.9 29.2 2.4 36.9-5.3 3.6-3.6 3.9-9.3 1.8-11.4 0 0-1.2 5-4.7 8.5-9.9 9.9-35.8 1.7-53.4 4.2 9.4-9.4 35.8-2.6 45.5-12.3a12 12 0 0 0 3.5-10.2l-.1-.1c-.2.9-.9 2.8-4.2 6.1-7.9 7.9-18.7 7.4-31.3 7.3 0 0 13.8-1.7 21.8-9.7 4-4 3.6-7.4 2.9-9A41.1 41.1 0 0 0 .7 52.4c.7-2.3 2-4.6 4.2-6.8z"/><linearGradient id="SVGID_2_" x1="4.5" x2="81.3" y1="61.2" y2="61.2" gradientTransform="translate(1 -.4)" gradientUnits="userSpaceOnUse"><stop offset=".3" stop-color="#009ba8"/><stop offset=".4" stop-color="#1e9fac"/><stop offset=".6" stop-color="#43acb8"/><stop offset=".9" stop-color="#69c3ce"/><stop offset="1" stop-color="#71ccd6"/></linearGradient><path fill="url(#SVGID_2_)" d="M80.8 34.9c-.1 3.2-1.5 6.4-4.6 9.4-5.9 5.9-16.5 7-27.8 7H47l-1.1-.1c-14.5-.9-29.5-2.5-37.2 5.3-3 3-3.7 7.4-2.7 10l.9 1.4c0-.1 1.2-5 4.7-8.5 9.9-9.9 35.8-1.7 53.4-4.2-9.4 9.4-35.8 2.6-45.5 12.3A11.2 11.2 0 0 0 16 78c0-.2.1-2.2 4.1-6.2 7.9-7.9 18.7-7.4 31.3-7.3 0 0-13.8 1.7-21.8 9.7-5.6 5.6-2.6 9.8-2.4 10a41 41 0 0 0 53.6-49.3z"/></g></svg>