<svg version="1.1" id="Layer_1" xmlns="http://www.w3.org/2000/svg" x="0" y="0" viewBox="0 0 360 148.1" xml:space="preserve"><style>.st0{fill:#fff}</style><path class="st0" d="M55 78.5s-12.4 27.2-29.5 27.2c-19.5 0-14.7-14 2.5-48.8C48 16 54.6 6.7 76.2 6.7h21.7l.5-1.4H75c-27 0-33.5 9-54.2 51-21 42.7-20 51 3.9 51 10.9 0 12.9-5.1 15.6-5.1 2.3 0 1.7 2.5.4 5.1L55 78.5z"/><path class="st0" d="M23.5 142.1l46.7-94.6h7.4L31 142zM94.8 142.1l46.7-94.6h7.5L102.3 142zM116.5 142.1l46.7-94.6h7.4L123.9 142zM173.7 107L223.8 5.4h7.4l-50 101.8z"/><path class="st0" d="M128.8 74.8c-6.5 9-19.6 32.6-28 32.6-7 0-8.3-5.2-5.1-11.9l15.8-32.1c1.5-3.3 1.9-5.4.2-5.4-4.5 0-31.4 49.3-41 49.3-6.5 0-6.5-5.8-3.7-11.7l44.6-90.3h7.4L76.1 91.9c-5.3 10.5-5.2 12.7-3.5 12.7 7.5 0 38.1-58.2 47.8-58.2 4 0 4.2 5.4 2.6 9S102.6 96 101 99.6c-1.7 3.6-.4 5.3 1.8 5.3 5.8 0 24.7-31 30.9-40.7l-5 10.6zM296.5 71.5c-3.3 4.4-22.6 35.8-34.1 35.8-4.8 0-6.5-5.8-3.7-11.7l44.6-90.3h7.4L269.1 89c-6.3 13.4-5.8 15.4-3.3 15.4 6 0 25.8-29.3 32-37.7 1-1.3.8 2-1.3 4.7z"/><path class="st0" d="M319.7 71.7c-3.3 4.4-21.7 35.6-33.2 35.6-4.8 0-6.5-5.8-3.7-11.7l44.6-90.3h7.4L293.2 89c-6.2 13.4-5.7 15.4-3.3 15.4 6 0 25-29.1 31.2-37.5 1-1.3.7 2-1.4 4.7zM180.3 46.3c-15.2 0-45.5 61-30 61 11.2 0 15-5.2 25.7-27 12.2-25 12-34 4.3-34zm-29.5 58.9c-12.5 0 16.7-57.2 28.4-57.2 4 0 1.4 9.8-7.4 28.5-9.9 20.8-17 28.7-21 28.7zM225 46.4c5.7 0 4 7.7 2.3 11.1l-20.2 40.9c-1.1 2.3-3.4 7.1-1.2 7.1s13-8.9 24.7-25.7c4-5.7 3.8-2.4-.6 3.5-12.8 17.4-20.7 24-27.3 24-6.3 0-3.9-7-2-10.8l18.8-38.3c2-4.1 1.4-7.5-1-7.5s-8.7 9-27.7 35.5c0 0-7.5 8 2.8-6.1s21.3-33.7 31.4-33.7z"/><path class="st0" d="M266.7 22.4l-3 6 80.7-2.6c15 0 15-1.5.1-1.5l-77.8-1.9zM161 135.6l-2.9 5.9 152.8-3.6c15 0 15-1.5 0-1.5l-149.8-.8zM260.2 48.1c-4.8 0-9.6 6-21.1 29.4-9.8 19.9-10.8 27.8-6.1 27.8 7.4 0 21.3-14.4 37.9-34.4 2.9-3.5 4.9-3.8 2-.1-23.4 29.5-32.8 36.5-42.5 36.5-10.3 0-8.9-9.3 2.1-31.5 11.4-23.1 17.9-29.2 28.3-29.2 4 0 7.2 6.3 2.9 14.7-5.6 11-19.3 23.6-28.4 23.6-8.5 0-3.4-2 1-2 5 0 16.8-13.1 22-23.4 3-5.8 5-11.4 2-11.4zM343.2 48c-4.9 0-9.3 6.2-20.8 29.5-9.8 19.9-10.9 27.8-6.1 27.8 7.4 0 13-7.6 27.7-24.3 3-3.5 5-3.9 2-.2-16.2 20-22.6 26.5-32.4 26.5-10.3 0-8.8-9.3 2.2-31.5 11.4-23.1 17.2-29.2 27.7-29.2 3.9 0 7.7 6.3 3.4 14.7-5.5 11-19.2 23.6-28.3 23.6-8.6 0-3.5-2 1-2 4.9 0 16.7-13.2 22-23.4 3-5.8 4.6-11.4 1.6-11.4z"/></svg>