<?xml version="1.0" encoding="utf-8"?>
<!-- Generator: Adobe Illustrator 22.1.0, SVG Export Plug-In . SVG Version: 6.00 Build 0)  -->
<svg version="1.1" id="Layer_1" xmlns="http://www.w3.org/2000/svg" xmlns:xlink="http://www.w3.org/1999/xlink" x="0px" y="0px"
	 viewBox="0 0 360 90.5" style="enable-background:new 0 0 360 90.5;" xml:space="preserve">
<style type="text/css">
	.st0{fill:#FFFFFF;}
</style>
<g>
	<path class="st0" d="M75.7,64.2c-0.3,0-0.7,0-1,0s-0.5,0.2-0.5,0.7c0,0.6,0,2.4,0,5.5c0,5.2-2.6,9-6.9,9c-3.5,0-9,0-11.9,0
		c0-3,0-8.8,0-10.7c0-12.9,0-47.1,0-47.1c0-2.6,0-4.3,0-4.8c0-2.8,1.6-5.5,4.2-5.5c2,0,3.2,0,3.5,0s0.5-0.2,0.5-0.5c0-0.5,0-1,0-1.3
		c0-0.3-0.2-0.4-0.4-0.4c-0.2,0-3.4,0-3.4,0c-0.9,0-3.7,0-5.9,0c0,0-1.3,0-2.9,0c-2.2,0-5,0-5.9,0c0,0-3.2,0-3.4,0
		c-0.2,0-0.4,0.2-0.4,0.4c0,0.3,0,0.8,0,1.3c0,0.3,0.2,0.5,0.5,0.5c0.3,0,1.5,0,3.5,0c2.6,0,4.2,2.7,4.2,5.5c0,0.5,0,2.2,0,4.8
		c0,0,0,34.1,0,47.1c0,2.6,0,4.3,0,4.8c0,2.8-1.6,5.5-4.2,5.5c-2,0-3.2,0-3.5,0c-0.3,0-0.5,0.2-0.5,0.5c0,0.5,0,1,0,1.3
		c0,0.3,0.2,0.4,0.4,0.4c0.2,0,3.4,0,3.4,0c0.9,0,3.7,0,5.9,0c1.6,0,2.9,0,2.9,0c0.1,0,0.3,0,0.4,0c0,0,0.4,0,1.1,0
		c4.2,0,19.3,0,19.8,0c0.6,0,0.9-0.3,0.9-0.9c0-0.6,0-15,0-15.4S76,64.2,75.7,64.2z"/>
	<path class="st0" d="M239,9.1c-0.6,0-17.8,0-20.6,0c-0.2,0-0.4,0-0.4,0c-0.3,0-0.7,0-1.1,0c0,0-1.3,0-2.9,0c-2.2,0-5,0-5.9,0
		c0,0-3.2,0-3.4,0s-0.4,0.2-0.4,0.4c0,0.3,0,0.8,0,1.3c0,0.3,0.2,0.5,0.5,0.5s1.5,0,3.5,0c2.6,0,4.2,2.7,4.2,5.5c0,0.5,0,2.2,0,4.8
		c0,0,0,34.1,0,47.1c0,2.6,0,4.3,0,4.8c0,2.8-1.6,5.5-4.2,5.5c-2,0-3.2,0-3.5,0s-0.5,0.2-0.5,0.5c0,0.5,0,1,0,1.3
		c0,0.3,0.2,0.4,0.4,0.4s3.4,0,3.4,0c0.9,0,3.7,0,5.9,0c1.6,0,2.9,0,2.9,0c0.3,0,0.8,0,1.1,0c0,0,0.1,0,0.4,0c2.8,0,20,0,20.6,0
		c0.6,0,0.9-0.3,0.9-0.9c0-0.6,0-15,0-15.4s-0.2-0.7-0.4-0.7c-0.3,0-0.7,0-1,0c-0.3,0-0.5,0.2-0.5,0.7c0,0.6,0,2.4,0,5.5
		c0,5.2-2.6,9-6.9,9c-3.8,0-10.1,0-12.6,0c0-3,0-8.8,0-10.7c0-5.6,0-15.2,0-24.3c1,0,2.2,0,3.4,0c2.6,0.1,4.8,2.2,4.8,5.5
		c0,3.2,0,3.2,0,3.8c0,0.4,0.2,0.7,0.5,0.7c0.3,0,0.7,0,1,0c0.3,0,0.4-0.3,0.4-0.7c0-0.4,0-9.6,0-10.2c0,0,0,0,0,0s0,0,0,0
		c0-0.6,0-9.7,0-10.2c0-0.4-0.2-0.7-0.4-0.7c-0.3,0-0.7,0-1,0c-0.3,0-0.5,0.2-0.5,0.7c0,0.6,0,0.6,0,3.8c0,3.3-2.2,5.4-4.8,5.5
		c-1.2,0-2.4,0-3.4,0c0-11.1,0-20.9,0-20.9c0-1.9,0-7.7,0-10.7c2.5,0,8.8,0,12.6,0c4.3,0,6.9,3.9,6.9,9c0,3.2,0,5,0,5.5
		c0,0.4,0.2,0.7,0.5,0.7c0.3,0,0.7,0,1,0c0.3,0,0.4-0.3,0.4-0.7c0-0.4,0-14.8,0-15.4S239.6,9.1,239,9.1z"/>
	<path class="st0" d="M277,9.1c-0.6,0-11.9,0-13.7,0h-0.3h-1.3h-2.9h-1.3h-0.3c-1.8,0-13.1,0-13.7,0c-0.6,0-0.9,0.3-0.9,0.9
		s0,15,0,15.4c0,0.4,0.2,0.7,0.4,0.7c0.3,0,0.7,0,1,0c0.3,0,0.5-0.2,0.5-0.7c0-0.6,0-2.4,0-5.5c0-5.2,2.6-9,6.9-9c2.9,0,4.7,0,5.7,0
		c0,10.1,0,60,0,62.5c0,2.8-1.6,5.5-4.2,5.5c-2,0-3.2,0-3.5,0c-0.3,0-0.5,0.2-0.5,0.5c0,0.5,0,1,0,1.3c0,0.3,0.2,0.4,0.4,0.4
		c0.2,0,3.4,0,3.4,0c0.9,0,3.7,0,5.9,0c1.6,0,2.9,0,2.9,0c2.2,0,5,0,5.9,0c0,0,3.2,0,3.4,0s0.4-0.2,0.4-0.4c0-0.3,0-0.8,0-1.3
		c0-0.3-0.2-0.5-0.5-0.5s-1.5,0-3.5,0c-2.6,0-4.2-2.7-4.2-5.5c0-2.5,0-52.4,0-62.5c1,0,2.8,0,5.7,0c4.3,0,6.9,3.9,6.9,9
		c0,3.2,0,5,0,5.5c0,0.4,0.2,0.7,0.5,0.7c0.3,0,0.7,0,1,0c0.3,0,0.4-0.3,0.4-0.7c0-0.4,0-14.8,0-15.4S277.6,9.1,277,9.1z"/>
	<path class="st0" d="M201.8,79c-0.3,0-1.5,0-3.5,0c-2.6,0-4.2-2.7-4.2-5.5c0-0.5,0-2.2,0-4.8c0-5.3,0-14.2,0-22.8
		c8.8-3.2,15.3-7.6,15.3-14.5c0-9.1-6.5-9.1-6.5-5.6s4.7-0.6,4.7,5.6c0,5.7-5.6,9.4-13.5,12.3c0-11.6,0-22.1,0-22.1
		c0-2.6,0-4.3,0-4.8c0-2.8,1.6-5.5,4.2-5.5c2,0,3.2,0,3.5,0c0.3,0,0.5-0.2,0.5-0.5c0-0.5,0-1,0-1.3c0-0.3-0.2-0.4-0.4-0.4
		c-0.2,0-3.4,0-3.4,0c-0.9,0-3.7,0-5.9,0c0,0-1.3,0-2.9,0c-2.2,0-5,0-5.9,0c0,0-3.2,0-3.4,0c-0.2,0-0.4,0.2-0.4,0.4
		c0,0.3,0,0.8,0,1.3c0,0.3,0.2,0.5,0.5,0.5c0.3,0,1.5,0,3.5,0c2.6,0,4.2,2.7,4.2,5.5c0,0.5,0,2.2,0,4.8c0,0,0,11.7,0,24
		c-6.5,1.9-13.8,3.5-20.7,5.2c0-14,0-29.2,0-29.2c0-2.6,0-4.3,0-4.8c0-2.8,1.6-5.5,4.2-5.5c2,0,3.2,0,3.5,0s0.5-0.2,0.5-0.5
		c0-0.5,0-1,0-1.3c0-0.3-0.2-0.4-0.4-0.4s-3.4,0-3.4,0c-0.9,0-3.7,0-5.9,0c0,0-1.3,0-2.9,0c-2.2,0-5,0-5.9,0c0,0-3.2,0-3.4,0
		s-0.4,0.2-0.4,0.4c0,0.3,0,0.8,0,1.3c0,0.3,0.2,0.5,0.5,0.5s1.5,0,3.5,0c2.6,0,4.2,2.7,4.2,5.5c0,0.5,0,2.2,0,4.8
		c0,0,0,16.4,0,30.7c-10.8,3-19.3,6.8-19.3,13.4c0,9.7,10,9.3,10,5.1c0-5.1-8,5.4-8-5.1c0-5.6,7.5-8.8,17.3-11.4
		c0,5.6,0,10.8,0,14.4c0,2.6,0,4.3,0,4.8c0,2.8-1.6,5.5-4.2,5.5c-2,0-3.2,0-3.5,0s-0.5,0.2-0.5,0.5c0,0.5,0,1,0,1.3
		c0,0.3,0.2,0.4,0.4,0.4s3.4,0,3.4,0c0.9,0,3.7,0,5.9,0c1.6,0,2.9,0,2.9,0c2.2,0,5,0,5.9,0c0,0,3.2,0,3.4,0s0.4-0.2,0.4-0.4
		c0-0.3,0-0.8,0-1.3c0-0.3-0.2-0.5-0.5-0.5s-1.5,0-3.5,0c-2.6,0-4.2-2.7-4.2-5.5c0-0.5,0-2.2,0-4.8c0-3.9,0-9.7,0-15.9
		c6.8-1.6,14.1-3.1,20.7-5c0,8,0,16,0,20.9c0,2.6,0,4.3,0,4.8c0,2.8-1.6,5.5-4.2,5.5c-2,0-3.2,0-3.5,0c-0.3,0-0.5,0.2-0.5,0.5
		c0,0.5,0,1,0,1.3c0,0.3,0.2,0.4,0.4,0.4c0.2,0,3.4,0,3.4,0c0.9,0,3.7,0,5.9,0c1.6,0,2.9,0,2.9,0c2.2,0,5,0,5.9,0c0,0,3.2,0,3.4,0
		c0.2,0,0.4-0.2,0.4-0.4c0-0.3,0-0.8,0-1.3C202.3,79.1,202.1,79,201.8,79z"/>
	<path class="st0" d="M352.1,26.1c0.3,0,0.7,0,1,0c0.3,0,0.4-0.3,0.4-0.7c0-0.4,0-14.8,0-15.4s-0.3-0.9-0.9-0.9
		c-0.6,0-17.8,0-20.6,0c-0.2,0-0.4,0-0.4,0c-0.3,0-0.7,0-1.1,0c0,0-1.3,0-2.9,0c-2.2,0-5,0-5.9,0c0,0-3.2,0-3.4,0s-0.4,0.2-0.4,0.4
		c0,0.3,0,0.8,0,1.3c0,0.3,0.2,0.5,0.5,0.5s1.5,0,3.5,0c2.6,0,4.2,2.7,4.2,5.5c0,0.5,0,2.2,0,4.8c0,0,0,34.1,0,47.1
		c0,2.6,0,4.3,0,4.8c0,2.8-1.6,5.5-4.2,5.5c-2,0-3.2,0-3.5,0s-0.5,0.2-0.5,0.5c0,0.5,0,1,0,1.3c0,0.3,0.2,0.4,0.4,0.4s3.4,0,3.4,0
		c0.9,0,3.7,0,5.9,0c1.6,0,2.9,0,2.9,0c0.3,0,0.8,0,1.1,0c0,0,0.1,0,0.4,0c2.8,0,20,0,20.6,0c0.6,0,0.9-0.3,0.9-0.9
		c0-0.6,0-15,0-15.4s-0.2-0.7-0.4-0.7c-0.3,0-0.7,0-1,0s-0.5,0.2-0.5,0.7c0,0.6,0,2.4,0,5.5c0,5.2-2.6,9-6.9,9c-3.8,0-10.1,0-12.6,0
		c0-3,0-8.8,0-10.7c0-5.6,0-15.2,0-24.3c1,0,2.2,0,3.4,0c2.6,0.1,4.8,2.2,4.8,5.5c0,3.2,0,3.2,0,3.8c0,0.4,0.2,0.7,0.5,0.7
		c0.3,0,0.7,0,1,0c0.3,0,0.4-0.3,0.4-0.7c0-0.4,0-9.6,0-10.2c0,0,0,0,0,0s0,0,0,0c0-0.6,0-9.7,0-10.2c0-0.4-0.2-0.7-0.4-0.7
		c-0.3,0-0.7,0-1,0c-0.3,0-0.5,0.2-0.5,0.7c0,0.6,0,0.6,0,3.8c0,3.3-2.2,5.4-4.8,5.5c-1.2,0-2.4,0-3.4,0c0-11.1,0-20.9,0-20.9
		c0-1.9,0-7.7,0-10.7c2.5,0,8.8,0,12.6,0c4.3,0,6.9,3.9,6.9,9c0,3.2,0,5,0,5.5C351.5,25.9,351.8,26.1,352.1,26.1z"/>
	<path class="st0" d="M134.3,79c-0.3,0-1.5,0-3.5,0c-2.6,0-4.2-2.7-4.2-5.5c0-0.5,0-2.2,0-4.8c0-2.2,0-5.1,0-8.2
		c0-16.1,28-5.2,28-33.4c0-14.1-8.6-17.9-20.2-17.9c-0.2,0-3.4,0-3.4,0c-0.9,0-3.7,0-5.9,0c0,0-1.3,0-2.9,0c-2.2,0-5,0-5.9,0
		c0,0-3.2,0-3.4,0c0,0,0,0-0.1,0c-3.7,0-17.7,0-18.3,0c-0.6,0-0.8,0.2-0.8,0.6s0,0.8,0,1.1c0,0.3,0.1,0.5,0.6,0.5c0.4,0,1.5,0,4.2,0
		s4.1,1.3,3.5,3.9c-0.8,3-7,25.6-7.7,27.7c-0.7,2.1-1,3.9-2,3.9c-1.4,0-2-2.1-2.9-4.4c-0.9-2.3-8.4-22.1-9.6-25.5
		c-1.2-3.3-0.3-5.6,2.6-5.6c2.9,0,3.8,0,4.4,0c0.6,0,0.7-0.4,0.7-0.7c0-0.3,0-0.9,0-1.1c0-0.3-0.2-0.5-0.5-0.5c-0.3,0-18.3,0-18.7,0
		c-0.4,0-0.7,0.2-0.7,0.6c0,0.4,0,1,0,1.4c0,0.4,0.3,0.4,0.6,0.4c0.3,0,1.6,0,2.9,0c1.3,0,2.6,0.8,4.2,6.1
		c1.7,5.4,12.6,33.8,12.6,33.8s0,19.2,0,22S86.2,79,83.6,79c-2,0-3.2,0-3.5,0c-0.3,0-0.5,0.2-0.5,0.5c0,0.5,0,1,0,1.3
		c0,0.3,0.2,0.4,0.4,0.4c0.2,0,3.4,0,3.4,0c0.9,0,3.7,0,5.9,0c1.6,0,2.9,0,2.9,0c2.2,0,5,0,5.9,0c0,0,3.2,0,3.4,0
		c0.2,0,0.4-0.2,0.4-0.4c0-0.3,0-0.8,0-1.3c0-0.3-0.2-0.5-0.5-0.5c-0.3,0-1.5,0-3.5,0c-2.6,0-4.2-2.7-4.2-5.5s0-22,0-22
		s9.3-32.3,10.4-35.8c1-3.5,3-4.2,4.9-4.2s2.8,0,3.5,0c0.1,0,0.1,0,0.2,0c0,0,0,0,0,0c0.3,0,1.5,0,3.5,0c2.6,0,4.2,2.7,4.2,5.5
		c0,0.5,0,2.2,0,4.8c0,0,0,34.1,0,47.1c0,2.6,0,4.3,0,4.8c0,2.8-1.6,5.5-4.2,5.5c-2,0-3.2,0-3.5,0s-0.5,0.2-0.5,0.5c0,0.5,0,1,0,1.3
		c0,0.3,0.2,0.4,0.4,0.4s3.4,0,3.4,0c0.9,0,3.7,0,5.9,0c1.6,0,2.9,0,2.9,0c2.2,0,5,0,5.9,0c0,0,3.2,0,3.4,0s0.4-0.2,0.4-0.4
		c0-0.3,0-0.8,0-1.3C134.8,79.1,134.6,79,134.3,79z M126.6,16.4c0-2.8,1.6-5.5,4.2-5.5c2,0,3.2,0,3.5,0c9.2,0,13.1,6.5,13.1,16.5
		c0,23.3-17,19.6-20.8,27.3c0-14.8,0-33,0-33C126.6,19.1,126.6,16.8,126.6,16.4z"/>
	<path class="st0" d="M314.9,9.1c-0.6,0-11.9,0-13.7,0H301h-1.3h-2.9h-1.3h-0.3c-1.8,0-13.1,0-13.7,0c-0.6,0-0.9,0.3-0.9,0.9
		s0,15,0,15.4c0,0.4,0.2,0.7,0.4,0.7c0.3,0,0.7,0,1,0c0.3,0,0.5-0.2,0.5-0.7c0-0.6,0-2.4,0-5.5c0-5.2,2.6-9,6.9-9c2.9,0,4.7,0,5.7,0
		c0,10.1,0,60,0,62.5c0,2.8-1.6,5.5-4.2,5.5c-2,0-3.2,0-3.5,0s-0.5,0.2-0.5,0.5c0,0.5,0,1,0,1.3c0,0.3,0.2,0.4,0.4,0.4s3.4,0,3.4,0
		c0.9,0,3.7,0,5.9,0c1.6,0,2.9,0,2.9,0c2.2,0,5,0,5.9,0c0,0,3.2,0,3.4,0s0.4-0.2,0.4-0.4c0-0.3,0-0.8,0-1.3c0-0.3-0.2-0.5-0.5-0.5
		c-0.3,0-1.5,0-3.5,0c-2.6,0-4.2-2.7-4.2-5.5c0-2.5,0-52.4,0-62.5c1,0,2.8,0,5.7,0c4.3,0,6.9,3.9,6.9,9c0,3.2,0,5,0,5.5
		c0,0.4,0.2,0.7,0.5,0.7c0.3,0,0.7,0,1,0c0.3,0,0.4-0.3,0.4-0.7c0-0.4,0-14.8,0-15.4S315.5,9.1,314.9,9.1z"/>
	<path class="st0" d="M37.3,9.1c-0.3,0-0.6,0-0.9,0c-0.3,0-0.5,0.2-0.5,0.5c0,3.2-0.4,3.8-2.1,3.8c-2.3,0-2.8-6.7-9.5-6.7
		C13.7,6.8,7,14.5,7,45.1c0,30.1,6.2,37.8,17.2,37.8c7.6,0,7.5-6.5,10.4-6.5c0.8,0,1.1,0.7,1.1,1.4c0,0.7,0,2.1,0,2.6
		s0.1,0.8,0.5,0.8s0.5,0,0.9,0s0.6-0.3,0.6-1c0-0.7,0-5.7,0-5.7s0-30.4,0-31s-0.3-0.9-0.9-0.9c-0.6,0-15.1,0-15.5,0
		s-0.7,0.2-0.7,0.4c0,0.3,0,0.7,0,1c0,0.3,0.2,0.5,0.7,0.5c0.6,0,1.8,0,5,0c3.4,0,5.5,2.3,5.5,5c0,4.1,0,19.5,0,24.3
		c0,3-2.6,8-7.6,8C14.9,81.8,14,57.1,14,43.9c0-13.2,0.7-36.1,10.3-36.1s11.6,23,11.6,26.7c0,0.4,0.2,0.7,0.5,0.7c0.1,0,0.2,0,0.7,0
		s0.7-0.2,0.7-0.8c0-0.9,0-24.4,0-24.8C37.8,9.3,37.6,9.1,37.3,9.1z"/>
</g>
</svg>
