<?xml version="1.0" encoding="utf-8"?>
<!-- Generator: Adobe Illustrator 20.1.0, SVG Export Plug-In . SVG Version: 6.00 Build 0)  -->
<svg version="1.1" id="Layer_1" xmlns="http://www.w3.org/2000/svg" xmlns:xlink="http://www.w3.org/1999/xlink" x="0px" y="0px"
	 viewBox="0 0 360 360" style="enable-background:new 0 0 360 360;" xml:space="preserve">
<style type="text/css">
	.st0{fill:#FFFFFF;}
</style>
<g>
	<path class="st0" d="M204.6,140.9c5.7-5.7,8.8-14.8,5.8-22.6c-2.7-6.8-9.1-11.9-15.8-14.4c-5.1-1.9-10.8-2-16-0.6
		c-1.7,0.4-3.4,1.1-5,1.8c-0.4,0.2-0.8,0.4-1.1,0.6c-0.3,0.2-0.5,0.2,0.2,0c-0.4,0.1-0.8,0.3-1.2,0.4c-3.1,1.1-6.1,2.3-9.1,3.5
		c-16.7,6.7-32.9,14.3-49.1,22.2c-6.5,3.2-13,6.4-19.4,9.6c-3.6,1.8-7.3,3.7-10.9,5.5c-2.8,1.4-5.5,3-8.3,4.2
		c-8.9,3.9-19.5,4.3-28.9,3c-7.7-1.1-17.1-3.5-22.1-9.7c-0.7-0.9-1.3-2.1-1.6-3.4c0-0.2-0.1-0.3-0.1-0.5c0.1,0.5,0-0.1,0-0.2
		c0-0.4,0-0.7,0-1.1c0-0.2,0-0.4,0-0.5c0,0.4,0-0.2,0-0.2c0.1-0.4,0.2-0.9,0.3-1.3c1.2-3.7,4.9-7.2,8.6-9c8.1-4,18.5-1.5,26.4,2
		c3.4,1.5,7,3.6,9.6,5.8c0.5,0.4,1,0.9,1.4,1.4c0.1,0.1,0.2,0.2,0.3,0.3c0.3,0.4-0.3-0.3,0,0c0.2,0.2,0.3,0.5,0.4,0.7
		c0.8,1.6,1.4,3.4,2,5.2c3.1,10.6,2.1,22.1-0.2,32.7c-1.7,7.8-4.3,15.3-7.3,22.7c-2.6,6.4-5.4,12.8-8.9,18.8
		c-2.2,3.8-4.8,7.6-8.2,10.5c-0.5,0.4-1,0.8-1.8,1.3c-0.3,0.2-0.7,0.4-1,0.6c-0.4,0.2-0.8,0.4-0.9,0.4c-0.7,0.3-1.3,0.5-2,0.6
		c-0.9,0.2-0.9,0.2-1.9,0.2c-0.4,0-0.7,0-1.1,0c-0.2,0-1-0.1-0.8-0.1c-1-0.1-1.5-0.4-2.2-0.9c-0.3-0.2-0.8-0.9-1.1-1.4
		c-0.4-0.7-0.6-1.6-0.8-2.6c-1.1-5.5,0.8-11.6,2.5-16.8c2.7-8.5,6.8-16.3,10.7-24.2c2.9-5.9,5.8-11.7,8.7-17.6
		c7.9-16.2,15.9-32.4,23.8-48.6C85.8,103.6,93.4,88,101,72.4c3.5-7.2,7-14.4,10.5-21.7c0,0,0,0,0,0c-1.2-0.2-2.4-0.3-3.6-0.5
		c1.7,8.1,3.4,16.1,5.1,24.2c3.5,16.4,6.9,32.7,10.4,49.1c2.7,13,5.5,26,8.2,38.9c0.4,1.9,0.7,3.9,1.3,5.8c1.1,3.6,2.5,7.1,4.5,10.2
		c2.3,3.7,5.9,7.2,10.5,7.1c4.8-0.1,8.2-4.2,10.3-8c2.5-4.3,4-9.3,5-14.2c0.4-2.2,0.6-4.4,1-6.5c0.1-0.6,0.3-1.1,0.5-1.6
		c0,0.1,0.4-0.6,0.2-0.4c0-0.1,0.5-0.4,0.1-0.2c-0.4,0.3-1,0-1.2-0.3c0.1,0.2,0.3,0.7,0.3,1.2c0.2,2.1-0.2,4.3-0.3,6.4
		c-0.1,2.5-0.3,5.1-0.4,7.6c-0.2,4-0.4,7.9-0.7,11.9c0,0.9,0.6,1.7,1.4,1.9c1.1,0.3,2-0.4,2.4-1.4c0-0.1,0-0.1,0.1-0.2
		c0.2-0.5-0.2,0.4,0.1-0.2c0.3-0.7,0.6-1.4,1-2.2c1-2.2,2.1-4.4,3.3-6.6c1.4-2.6,3-5.2,4.7-7.6c0.8-1.1,1.6-2.1,2.5-3.1
		c0.6-0.7,1.9-2,2.9-1.9c-0.3-0.1-0.4-0.8-0.4-0.4c0,0.2,0,0.3,0,0.5c0,0.6-0.1,1.2-0.1,1.8c-0.1,1.8-0.2,3.5-0.2,5.3
		c0,4.1,0.2,8.5,2.1,12.2c2.1,4.2,6.7,4.8,10.7,3.1c5.5-2.3,9.4-7.6,12-12.8c1.4-2.8,2.5-5.7,3.1-8.8c0.3-1.4,0.4-2.9,0.8-4.3
		c0.1-0.6,0.3-1.1,0.5-1.6c0.1-0.2,0.2-0.4,0.4-0.6c-0.1,0.2,0.5-0.4,0.1-0.1c0.4-0.3-0.3,0.1,0.1,0c-0.3,0.1-0.5,0.1-0.8-0.1
		c-0.2-0.1-0.1-0.2,0,0.1c0.4,1.2,0.2,2.5,0,3.7c-0.5,3-1,6-1.5,9c-0.5,3.6-1.1,7.1-1.6,10.7c-0.1,0.9,0.1,1.7,0.9,2.2
		c0.9,0.5,2.2,0.2,2.7-0.7c1.7-3.2,3.6-6.4,5.7-9.3c1.7-2.4,3.6-4.7,5.7-6.8c0.6-0.6,1.8-1.8,2.3-2c0.1,0,0.6-0.1,0.2-0.1
		c0.5,0-0.3-0.1,0.2,0c-0.4-0.1,0.2,0.2,0,0c0.1,0.1,0.4,0.4,0.4,0.5c1.7,2.4,0.8,5.8,0.5,8.4c-0.4,3,0.1,6.1,1.3,8.8
		c1,2.4,2.7,4.4,5.3,5.2c2.2,0.7,4.9-0.2,6.6-1.7c6.6-6,12.3-13,17.9-19.9c2-2.5,4.2-4.9,6.9-6.7c1.5-0.9,2.7-1.4,4.1-1.3
		c0.5,0-0.4-0.1,0,0c0.1,0,0.3,0.1,0.4,0.1c0.1,0,0.2,0.1,0.4,0.1c0.4,0.1-0.4-0.2,0,0c0.2,0.1,0.4,0.2,0.6,0.3
		c0.4,0.2-0.3-0.3,0.2,0.1c0.2,0.2,0.8,0.9,0.2,0.2c0.2,0.2,0.3,0.4,0.4,0.6c0.1,0.2-0.4-0.5-0.2-0.3c0.1,0.2,0.2,0.5-0.1-0.2
		c0,0.1,0.1,0.2,0.1,0.3c0-0.1,0-0.5,0,0.1c0,0.2-0.1,0.8,0,0.1c0,0.3-0.1,0.6-0.2,0.8c-0.2,0.9-0.4,1.3-0.8,2
		c-1.3,2.6-3.1,4.9-5,7.1c-1.9,2.3-4,4.5-6.4,6.2c-0.6,0.4-1.7,1-2,1.2c-0.3,0.1-0.7,0.2-1,0.3c-0.2,0-0.3,0.1-0.5,0.1
		c-0.5,0.1,0.4,0,0,0c-0.2,0-0.4,0-0.6,0c-0.5,0,0.4,0.1-0.2,0c-0.2,0-0.8-0.3-0.1,0c-0.1-0.1-0.2-0.1-0.4-0.2c-0.5-0.3,0.4,0.4,0,0
		c-0.3-0.3,0.3,0.4,0-0.1c-0.3-0.5-0.5-0.9-0.6-1.7c-0.1-1.5,0.3-3,1-4.3c1.1-2.3-2.3-4.3-3.4-2c-1.5,3.1-2.7,8.2,0.4,10.9
		c1.8,1.6,4.5,1.6,6.6,0.7c5.7-2.2,10.1-7.9,13.6-12.7c1.9-2.6,4.4-6.4,3.6-9.8c-0.1-0.3-0.2-0.6-0.4-0.9c-0.6-0.9-0.2-0.4-0.1-0.1
		c-0.5-0.7-1-1.2-1.7-1.7c-2.6-1.9-6-1.3-8.6,0.1c-2.6,1.3-4.7,3.5-6.7,5.6c-2.7,2.9-5.1,6.1-7.6,9.2c-3.2,3.8-6.5,7.5-10,11
		c-1.4,1.4-3.1,3.6-5.1,2.7c-2.1-0.9-2.9-3.7-3.3-5.8c-0.6-3.2,0.4-6.2,0.3-9.4c-0.1-2.6-0.8-5.6-3.1-7.2c-2.2-1.5-4.4-0.4-6.3,1.1
		c-4.5,3.6-7.9,8.7-10.9,13.6c-0.9,1.5-1.9,3.1-2.7,4.7c1.2,0.5,2.4,1,3.6,1.5c0.6-4.1,1.2-8.1,1.8-12.2c0.5-3,1.1-6.1,1.5-9.1
		c0.3-2.3,0.2-5.2-2-6.5c-2.1-1.3-4.3,0.6-5.2,2.3c-1.4,2.6-1.4,5.8-2.1,8.6c-1.5,5.7-4.6,11.3-9.1,15.2c-1.7,1.5-4,2.6-6.3,2.7
		c-1.2,0-2-0.6-2.7-1.7c-1.8-3-1.8-7.4-1.7-11c0-1.7,0.1-3.4,0.2-5.2c0.1-1.4,0.3-2.6-0.3-3.9c-0.5-1.2-2.1-1.7-3.3-1.6
		c-1.7,0.1-3.2,1-4.5,2c-2.2,1.8-3.9,4.5-5.5,6.9c-3.2,4.9-5.9,10.2-8,15.6c1.3,0.2,2.6,0.3,3.9,0.5c0.4-7.8,0.9-15.7,1.3-23.5
		c0.1-2.3,0.3-5.2-1.8-6.7c-2.1-1.5-4.3,0.6-5.1,2.4c-1,2.4-1.1,4.9-1.5,7.1c-0.4,2.3-1,4.5-1.6,6.7c-1.3,4.4-3.1,9.2-6.6,12.3
		c-2.9,2.7-6.2,1.8-8.9-1c-2.7-2.8-4.3-6.7-5.5-10.2c-0.3-1-0.7-1.9-0.9-2.9c-2-9.6-4.1-19.2-6.1-28.8c-3.5-16.6-7-33.2-10.5-49.7
		c-2.5-11.8-5-23.7-7.5-35.5c-0.2-0.9-0.4-1.8-0.6-2.6c-0.3-1.6-2.9-2-3.6-0.5c-3.4,6.9-6.7,13.8-10.1,20.7
		c-7.5,15.5-15.1,31-22.7,46.5c-7.9,16.3-15.9,32.6-23.9,48.8c-2.9,6-5.9,12-8.8,17.9c-3.7,7.5-7.6,15-10.4,22.9
		c-2.1,5.9-3.9,12.3-3.8,18.6c0.1,4.4,1.6,8.7,5.8,10.5c2.9,1.2,6.8,0.7,9.7-0.5c3.6-1.5,6.4-4.1,8.8-7.1c3.5-4.3,6.2-9.2,8.6-14.2
		c3.5-7.1,6.5-14.5,9.1-22c4.2-12.3,7-25.6,5.8-38.7c-0.4-4.5-1.3-9.1-3-13.3c-0.6-1.6-1.2-3-2.3-4.3c-1-1.2-2.2-2.2-3.5-3.1
		c-7.1-5.3-16.3-8.7-25.1-9.3c-9.7-0.7-19.9,3.5-23.8,12.8c-3.1,7.3,2.2,13.6,8.3,17.1c8.2,4.7,18.4,6.3,27.8,6.3
		c5.1,0,10.3-0.6,15.3-1.9c5.6-1.5,10.5-4.3,15.7-7c21.5-11,43.3-21.7,65.5-31.4c7.2-3.1,14.6-6.3,22.2-8.9c0.8-0.3,1.6-0.8,2.4-1.1
		c0.1,0,0.5-0.2,0.1-0.1c0.2-0.1,0.3-0.1,0.5-0.2c0.4-0.1,0.7-0.3,1.1-0.4c1-0.3,2-0.6,3-0.8c2.4-0.5,4.8-0.6,7.2-0.5
		c6.7,0.5,13.2,4.6,17.1,10c3.2,4.5,3.6,9.9,1.4,14.9c-1.2,2.7-2.6,5-4.5,6.8C200,139.9,202.8,142.7,204.6,140.9L204.6,140.9z"/>
</g>
<g>
	<path class="st0" d="M271.9,147.3c-1.3,3.2-2,6.7-2.4,10c-1,7.4-0.5,15,2.3,22c4,9.7,12.1,16.5,21.6,20.6
		c9.4,4.1,20.8,6.9,30.8,3.2c6-2.2,10.7-6.8,13.6-12.4c1.4-2.7,2.6-5.7,3-8.6c0.2-1.1-0.3-2.1-1.4-2.4c-0.9-0.3-2.3,0.3-2.4,1.4
		c-0.1,0.9-0.4,1.7-0.6,2.6c-0.3,0.9-0.6,1.8-0.9,2.7c0,0.1-0.1,0.2-0.1,0.4c-0.2,0.4,0.2-0.4,0,0c-0.1,0.3-0.2,0.5-0.3,0.8
		c-0.3,0.6-0.6,1.2-0.9,1.7c-3,5.5-7.6,9.4-13.8,10.9c-4.4,1.1-9.1,0.8-13.6-0.1c-6.1-1.2-12.1-3.5-17.4-6.7
		c-7.8-4.7-13.4-12-15.4-20.8c-0.7-3-0.9-5.8-0.9-8.9c0-1.4,0.1-2.8,0.2-4.2c0.1-1.4,0.2-2,0.5-3.5c0.5-2.6,1.1-5.2,2.1-7.6
		c0.4-1-0.4-2.2-1.4-2.4C273.2,145.6,272.3,146.3,271.9,147.3L271.9,147.3z"/>
</g>
<g>
	<path class="st0" d="M96.4,213.9c-5.2,10.5-10.4,21-15.7,31.6c-3.5,7.1-7,14.2-10.6,21.3c-1.5,3-2.8,6.2-4.5,9
		c-1.9,3-4,5.9-6.4,8.5c-1.5,1.7-3.2,3.3-5.2,4.4c-1.6,0.9-3.4,1.1-5.2,0.1c-2.1-1.2-3.1-3.6-3.8-5.8c-0.8-2.7-1.1-5.6-0.8-8.4
		c0.3-3,2-5.9,4-8.1c1.4-1.5,3.7-3,5.5-2.7c2.3,0.4,4.5,1.7,6.4,2.9c2.7,1.6,5.2,3.4,7.7,5.3c4,3,7.6,6.5,11.8,9.3
		c4.9,3.1,10.2,5.8,15.6,8c4.7,1.9,9.6,3.4,14.7,3.1c11.1-0.8,20.9-7.4,27.1-16.3c3.5-5,5.8-10.9,7-16.9c1-5,1-10,0.9-15
		c-0.1-7.7-0.6-15.7-3.3-23c-3.1-8.4-9.2-14.7-17.5-17.9c-5.5-2.1-11.4-2.6-17.2-2.6c-6.3,0-12.6,0.6-18.7,2.3
		c-6.6,1.8-13.2,5.2-16.8,11.3c-3.2,5.4-2.3,11.6,0.4,17c3.3,6.7,9.8,10.9,16.7,13.2c5.6,1.9,11.7,2.5,17.6,2.6
		c6.7,0.1,13.5-0.5,20-2.1c10.4-2.5,20.1-7.6,27.7-15.1c5.6-5.5,10.2-12.5,12-20.2c0.4-1.8,0.7-3.7,0.7-5.5c0-2.5-3.9-2.5-3.9,0
		c0,1.7-0.1,2.4-0.4,3.9c-0.3,1.6-0.8,3.2-1.4,4.7c-1.2,3.2-3.3,6.7-5.5,9.6c-6,7.7-14.3,13.4-23.4,16.8c-5.8,2.1-11.9,3.3-18.1,3.8
		c-6.5,0.5-13.1,0.3-19.4-1c-4.3-0.9-8.6-2.4-12.3-4.9c-2.5-1.7-4.6-3.9-6.1-6.4c-0.3-0.5-0.6-1.1-0.9-1.7c-0.1-0.3-0.3-0.5-0.4-0.8
		c0.2,0.5-0.2-0.4-0.2-0.6c-0.4-1-0.7-2-0.9-3.1c-0.1-0.4-0.2-0.8-0.2-1.3c0.1,0.7,0-0.5-0.1-0.8c0-0.5-0.1-1.1,0-1.6
		c0-0.2,0-0.3,0-0.5c0-0.1,0-0.1,0-0.2c0.1-0.5-0.1,0.6,0,0c0.1-0.6,0.3-1.1,0.4-1.7c0.1-0.2,0.1-0.3,0.2-0.5
		c0.2-0.6-0.1,0.3,0.1-0.2c0.2-0.4,0.4-0.9,0.7-1.3c0.3-0.4,0.5-0.9,0.8-1.3c0.1-0.1,0.2-0.2,0.2-0.3c0.3-0.4-0.3,0.3,0-0.1
		c0.2-0.3,0.4-0.5,0.7-0.8c0.4-0.5,0.9-0.9,1.4-1.4c0.3-0.2,0.5-0.5,0.8-0.7c0.5-0.4,0.3-0.2,0.8-0.6c3.3-2.4,7.1-3.8,11-4.8
		c6.2-1.6,12.7-2,19-1.8c5.3,0.1,10.7,1,15.5,3.2c15.3,7.2,16.2,25.2,16.1,39.9c0,6.1-0.7,11.9-2.8,17.6c-2,5.3-5.2,10.2-9.2,14.2
		c-3.7,3.6-8.3,6.3-13.2,7.8c-4.6,1.4-9.2,1.5-13.8,0.1c-5.5-1.6-10.8-4.1-15.7-6.9c-2.3-1.3-4.6-2.7-6.7-4.2
		c-1.8-1.2-3.3-2.7-5-4.1c-4.6-3.9-9.6-7.7-15-10.5c-2-1-4.2-2-6.5-2c-2.8-0.1-5.4,1.7-7.3,3.6c-2.3,2.3-4,5.3-4.9,8.4
		c-0.9,3-0.7,6.2-0.2,9.2c0.8,5.2,3.5,11.2,9.2,12.2c5,0.9,9.1-2.8,12.2-6.1c2.6-2.8,4.9-6,6.9-9.2c1.7-2.8,3-5.9,4.4-8.8
		c3.5-7.1,7-14.1,10.5-21.2c5.3-10.7,10.6-21.3,15.9-32c0,0,0,0,0,0C100.9,213.6,97.5,211.6,96.4,213.9L96.4,213.9z"/>
</g>
<g>
	<path class="st0" d="M156.6,258.2c-2.2,6-4.4,11.9-6.6,17.9c-0.1,0.3-0.2,0.5-0.3,0.8c0.4-1.2-0.2,0.6-0.3,0.9
		c-0.5,1.8-0.3,4,1.2,5.3c3,2.6,7.7,1,10.6-1c3.1-2.1,5.6-5,7.9-7.9c3.6-4.6,6.5-9.8,9.2-14.9c-1.2-0.5-2.4-1-3.6-1.5
		c-1.4,6.2-2.7,12.4-4.1,18.6c-0.5,2.3-0.6,4.3,1,6.2c1.5,1.8,4.5,2.2,6.7,2.1c1.5-0.1,2.9-0.5,4.3-1.1c3.8-1.7,6.9-4.9,9.5-8.1
		c4.6-5.7,8.2-12.2,11.3-18.8c1.1-2.3-2.3-4.3-3.4-2c-2.9,6.2-6.2,12.4-10.4,17.8c-2.5,3.1-5.2,6-8.8,7.6c-0.5,0.2,0.4-0.1-0.1,0.1
		c-0.1,0.1-0.3,0.1-0.5,0.2c-0.3,0.1-0.6,0.2-0.9,0.3c-0.3,0.1-0.6,0.1-0.8,0.2c0.6-0.1-0.3,0-0.5,0c-1.1,0-2.3-0.1-3.2-0.7
		c-0.2-0.1-0.3-0.3-0.4-0.4c0-0.1-0.3-0.6-0.1-0.1c-0.1-0.2-0.1-0.4-0.2-0.6c0.1,0.5,0-0.3,0-0.4c0-0.6-0.1,0.4,0-0.2
		c0-0.1,0.1-0.3,0.1-0.4c0.2-1.1,0.5-2.2,0.7-3.2c1.2-5.3,2.3-10.6,3.5-15.9c0.5-2.1-2.5-3.6-3.6-1.5c-3.1,6-6.5,11.9-10.9,17
		c-1.3,1.5-2.9,3.1-4.5,4.2c-0.6,0.5-1.3,0.9-2,1.2c-0.2,0.1-0.3,0.2-0.5,0.2c0.4-0.2-0.1,0-0.2,0.1c-0.4,0.1-0.7,0.2-1.1,0.3
		c-0.1,0-0.3,0.1-0.5,0.1c0.5-0.1,0,0-0.1,0c-0.4,0-0.9,0-1.3,0c-0.2,0-0.4-0.1-0.6-0.2c0.1,0-0.3-0.2-0.1-0.1
		c-0.4-0.3,0.1,0.2-0.2-0.2c0.2,0.4-0.1-0.5,0,0c0-0.2,0-0.4,0-0.5c0-0.6-0.1,0.4,0-0.1c0-0.3,0.1-0.5,0.2-0.8c0.1-0.3,0.2-0.6,0,0
		c0.1-0.2,0.2-0.4,0.2-0.6c1.1-2.9,2.2-5.8,3.2-8.7c1.2-3.3,2.4-6.6,3.6-9.8C161.3,256.9,157.5,255.9,156.6,258.2L156.6,258.2z"/>
</g>
<g>
	<path class="st0" d="M210.2,204.2c-2.4,11.6-4.7,23.2-7.1,34.8c-1.5,7.6-3.1,15.2-4.6,22.9c-0.6,3-1.3,6.1-1.8,9.1
		c-0.5,3-0.4,6.2,1.1,8.9c2.2,4.1,7.5,5.1,11.7,4.1c5.2-1.3,9.2-5.7,12.3-9.7c4.2-5.5,7.2-11.9,9.5-18.4c0.9-2.4-2.9-3.4-3.8-1
		c-2.4,6.7-5.7,13.4-10.3,18.9c-3,3.6-7.3,7.5-12.4,6.6c-1.9-0.3-3.1-1.2-3.9-2.7c-0.1-0.1-0.2-0.4-0.3-0.8
		c-0.1-0.4-0.2-0.8-0.3-1.1c-0.1-0.6,0,0.4,0-0.2c0-0.2,0-0.4,0-0.6c0-0.4,0-0.8,0-1.2c0-0.3,0-0.6,0.1-0.9c0-0.1,0-0.3,0-0.4
		c0.1-0.5-0.1,0.5,0,0c0-0.3,0.1-0.6,0.2-0.9c0.1-0.2,0.1-0.4,0.1-0.7c2.7-13.3,5.4-26.5,8.1-39.8c1.7-8.5,3.5-17.1,5.2-25.6
		C214.5,202.8,210.7,201.7,210.2,204.2L210.2,204.2z"/>
</g>
<g>
	<path class="st0" d="M237.6,204.2c-2.4,11.6-4.7,23.2-7.1,34.8c-1.5,7.6-3.1,15.2-4.6,22.9c-0.6,3-1.3,6.1-1.8,9.1
		c-0.5,3.2-0.4,6.7,1.5,9.4c2.7,4,8.1,4.5,12.5,3.4c4.8-1.1,8.5-4.5,11.4-8.3c2-2.7,3.5-5.7,4.7-8.7c0.7-1.8,1.2-3.3,2.3-4.9
		c1.5-2.3,3.8-5.1,6.8-5.1c2.5-0.1,2.5-4,0-3.9c-4.9,0.1-8.6,4.2-10.9,8.2c-1.2,2.1-1.8,4.5-2.9,6.7c-1.3,2.7-2.8,5.3-4.8,7.5
		c-2.8,3.1-6.4,5.1-10.4,5.2c-2.1,0-4-0.4-5.2-1.9c-0.3-0.4-0.7-1.1-0.8-1.6c-0.1-0.4-0.2-0.8-0.3-1.1c0,0-0.1-0.7,0-0.2
		c0-0.2,0-0.5-0.1-0.7c0-0.7,0-1.3,0-2c0-0.3,0.1-0.5,0.1-0.8c-0.1,0.7,0-0.1,0.1-0.3c0-0.2,0.1-0.5,0.1-0.7c0.3-1.6,0.6-3.1,1-4.7
		c1.4-7,2.8-13.9,4.2-20.9c2.7-13.2,5.4-26.4,8-39.6c0-0.2,0.1-0.4,0.1-0.6C241.9,202.8,238.1,201.7,237.6,204.2L237.6,204.2z"/>
</g>
<g>
	<path class="st0" d="M253.2,260c-0.8,2.1-1.4,4.3-1.9,6.5c-0.9,3.7-1.6,7.8-0.6,11.5c1.1,4.1,5,5.9,9,4.9c4.4-1.1,6.8-5.7,8.4-9.5
		c1-2.6,1.8-5.3,2.2-8.1c0.1-0.9,0.5-1.8,0.7-2.8c0.4-2,0.6-4.1,0.2-6.2c-0.4-2-1.8-3.8-3.9-4.1c-2.2-0.3-4.4,0.5-5.3,2.7
		c-1.7,4.3,2.5,9.5,5.7,11.9c2.2,1.7,4.9,2.8,7.8,2.7c2.5-0.1,5-1.2,7-2.7c2.4-1.8,4.2-4.2,5.9-6.7c0.5-0.7,0.5-0.8,1-1.3
		c0.1-0.1,0.3-0.3,0.4-0.4c0.4-0.4-0.3,0.2,0.1-0.1c0.3-0.2-0.2,0-0.3,0c-0.4,0-0.9-0.2-1-0.6c0.4,1,0.2,2.1,0.1,3.1
		c-0.4,3.7-0.7,7.5-1.1,11.2c-0.3,3.1-0.6,6.1-0.9,9.2c-0.2,2,2.7,2.6,3.7,1c3.2-5.4,6.3-10.8,9.5-16.2c0.5-0.9,0.8-1.1,1.5-1.9
		c0.7-0.8,1.6-1.7,2.5-2.3c0.4-0.3,0.9-0.6,1.4-0.8c0.1,0,0.4-0.1,0.6-0.2c0.1,0,0.3,0,0.4,0c-0.2,0-0.2,0,0,0c0.1,0,0.5,0.2,0.1,0
		c0.1,0,0.5,0.3,0.1,0c0.1,0.1,0.2,0.2,0.3,0.3c-0.3-0.3,0,0.1,0.1,0.2c0.3,0.5,0.5,1.2,0.7,2.1c0.3,1.6,0.2,3.8,0.1,5.7
		c-0.1,0.9-0.2,1.8-0.3,2.7c-0.1,0.6-0.1,1-0.3,1.9c-0.1,0.6-0.3,1.3-0.3,2c0.2,4.3,3.6,7.2,7.8,7.6c7.4,0.8,15.7-2.3,20.9-7.5
		c5.6-5.6,7.5-13.7,7.5-21.5c0-2.5-3.9-2.5-3.9,0c0,5.5-1,11.1-4.1,15.8c-2.2,3.4-5.4,5.8-9,7.4c-1.3,0.6-3.2,1.1-4.8,1.5
		c-0.4,0.1-0.8,0.1-1.2,0.2c-0.2,0-0.4,0.1-0.6,0.1c0.4-0.1-0.2,0-0.2,0c-0.8,0.1-1.5,0.1-2.3,0.2c-2,0.1-4.1-0.2-5.4-1.6
		c-0.3-0.3-0.5-0.8-0.6-1.4c0-0.2-0.2-1.1-0.1-0.4c0-0.2,0-0.4,0-0.6c0-0.4-0.1,0.8,0,0.1c0.1-0.5,0.2-1,0.3-1.6
		c0.3-1.9,0.5-3.7,0.6-5.6c0.2-3.6,0.2-8.5-3-10.9c-1.9-1.4-4.6-0.6-6.4,0.6c-2,1.3-3.6,3.1-5.1,5c-1.4,1.9-2.4,4.1-3.6,6.1
		c-2.1,3.6-4.3,7.3-6.4,10.9c1.2,0.3,2.4,0.7,3.7,1c0.6-6.5,1.3-13,1.9-19.5c0.3-2.7,0.6-8.3-3.7-7.2c-2.4,0.6-3.7,3.6-5,5.4
		c-0.9,1.2-2.5,2.9-4,4c-1.8,1.3-4,2.1-6.2,1.5c-2.3-0.6-4.5-2.2-5.9-4.1c-0.6-0.8-1.2-1.7-1.5-2.6c-0.2-0.4-0.3-0.9-0.4-1.3
		c-0.1-0.6,0,0.3,0-0.3c0-0.1,0-0.9,0-0.4c0-0.2,0.1-0.3,0.1-0.5c-0.1,0.4,0,0,0.1-0.1c-0.1,0.2-0.2,0.1,0,0.1
		c0.3-0.1,0.5-0.1,0.6-0.1c0.5,0.1,0.4,0.1,0.6,0.3c-0.3-0.3,0.1,0.1,0.1,0.2c0.3,0.5-0.1-0.3,0.1,0.2c0.1,0.4,0.2,0.7,0.2,0.9
		c0.1,1,0,2-0.1,3c-0.2,1.5-0.8,3.6-1.2,5.4c-0.8,3.7-2,7.4-4.2,10.4c-1,1.4-2.3,2.4-4,2.7c-0.6,0.1-1.3,0-1.9-0.2
		c0.3,0.1-0.5-0.3-0.6-0.4c0.2,0.1-0.4-0.5-0.3-0.4c-0.8-1.1-0.9-2.5-0.9-4.1c0-1.9,0.2-3.5,0.6-5.4c0.5-2.6,1.3-5.2,2.2-7.7
		c0,0,0-0.1,0-0.1C258,258.7,254.1,257.7,253.2,260L253.2,260z"/>
</g>
<g>
	<path class="st0" d="M164.8,237.6c0.2-0.4,0.4-0.7,0.6-1c0.1-0.1,0.5-0.7,0.1-0.2c0.2-0.2,0.3-0.4,0.5-0.6c0.4-0.5,0.9-1,1.4-1.4
		c0.6-0.6,0.8-0.7,1.6-1.2c0.8-0.6,1.7-1.1,2.7-1.5c2.2-1.1,4.7-1.7,7.1-2.2c5.1-1,10.5-0.6,15.6-0.4c5.2,0.2,10.4,0.6,15.6,1.1
		c13.7,1.2,27.4,2.9,41.1,4.3c6,0.6,12.1,0.7,18,0.1c7.3-0.8,15.9-2.6,20.6-8.8c2.8-3.7,4-9.9,1.4-14c-2-3.1-6.3-3.8-9.6-2.9
		c-2.4,0.7-1.4,4.5,1,3.8c0.2-0.1,0.4-0.1,0.6-0.1c0.6-0.1-0.2,0,0.3,0c0.4,0,0.7,0,1.1,0c1.2,0,2.5,0.4,3.1,1.3
		c1.1,1.5,0.9,4,0.7,5.6c-0.3,1.7-0.8,2.8-1.9,4.3c0.1-0.1-0.4,0.5-0.6,0.7c-0.3,0.3-0.6,0.6-0.8,0.8c-0.7,0.6-1,0.9-1.9,1.4
		c-1.6,1-3,1.6-4.6,2.2c-3.7,1.3-7.4,1.8-11.1,2.1c-9.7,0.8-19.2-0.6-28.8-1.7c-10.3-1.2-20.6-2.2-31-3c-5.1-0.4-10.2-0.8-15.3-1
		c-5.5-0.2-11-0.3-16.5,1c-4.2,1-8.3,2.8-11.5,5.7c-1.2,1.1-2.5,2.4-3.1,3.9c-0.4,1-0.3,2.1,0.7,2.7
		C163,238.8,164.4,238.6,164.8,237.6L164.8,237.6z"/>
</g>
</svg>
