<svg xmlns="http://www.w3.org/2000/svg" xmlns:xlink="http://www.w3.org/1999/xlink" viewBox="0 0 422.1 492"><style>.st0{display:none}.st3{fill:#fff}.st6,.st7{display:inline}.st7{fill:#009ba7}</style><g id="Layer_1" class="st0"><g id="mission-art.psd" opacity=".2"><defs><path id="SVGID_1_" d="M-342.3-162.5H774.8v837.8H-342.3z" opacity=".2"/></defs><clipPath id="SVGID_2_"><use overflow="visible" xlink:href="#SVGID_1_"/></clipPath></g></g><g id="Layer_2"><path d="M43.7 183.6c21 0 43 10.7 70 10.7 45.9 0 52.7-67.5 11-67.5-8.7 0-15.8 6.2-15.8 12.3 0 8.6 7 5.6 9.7 5.6 5.4 0 4.7 7.2-1 7.2-15 0-16.3-27.1 7.2-27.1 42.6 0 39.6 71.5-11.2 71.5-29.2 0-54.4-10.6-70-10.6-48.7 0-50.7 54.4-9.4 54.4 13.9 0 21.2-10.9 21.2-22.4 0-3.9-.8-8.2-7.2-12.3l-18.7-12.2c-4.3-2.9-9.4-7.9-9.4-15 0-8.4 6.5-15.1 17.8-15.1 2.7 0 5.9.5 8.2 1.1 1.1.4 2.3.6 3 .6.8 2 1.6 7 1.6 10.6-.3.6-1.7.8-2.2.3-1.1-4.2-3.5-9.9-11.9-9.9-8.6 0-10.4 5.7-10.4 9.7 0 5.1 4.2 8.8 7.4 10.8L51 197.5c5.5 3.4 11 8.5 11 16.8a27.7 27.7 0 0 1-28 27.9c-43.3 0-42.6-58.6 9.7-58.6zM42.7 382.6c-49.3 0-47.7 53.2-8.8 53.2 14 0 21.5-10.6 21.5-22.1 0-3.9-.8-8.2-7.2-12.3l-18.7-12.2c-4.3-3-9.4-8-9.4-15 0-8.4 6.5-15.1 17.8-15.1 2.7 0 5.9.5 8.2 1.1 1.1.3 2.3.5 3 .5.8 2.1 1.6 7 1.6 10.7-.3.5-1.7.8-2.2.3-1.1-4.2-3.5-10-11.9-10-8.6 0-10.4 5.8-10.4 9.8 0 5 4.2 8.7 7.4 10.7L51 393.4c5.5 3.5 11 8.5 11 16.8A27.5 27.5 0 0 1 34 438c-42.3 0-43-57.4 8.7-57.4 22.3 0 36.8 9.7 49.6 9.7 20.2 0 25.1-7.5 25.1-7.5s.5 9.6-25.1 9.6c-16.3 0-28.5-9.7-49.6-9.7z" class="st3"/><path d="M123.5 266.1l35.6-93.5c1.3-3.1 1.8-4.8 1.5-6.2a9.8 9.8 0 0 0 4.6-3.3c.5 0 1.1.2 1.3.8 1.1 3.8 2.5 7.9 3.8 11.7l12 35.2c2.6 7.5 3.7 8.8 7.5 9.3l2.3.2c.6.5.5 1.9 0 2.2-3.6-.2-6.6-.2-10.6-.2l-10 .2c-.7-.3-.8-1.7-.2-2.2l2.5-.2c1.9-.2 3.1-.7 3.1-1.6 0-1-.4-2.6-1.1-4.7l-3.9-11.9c-.6-1.9-1-2.1-3.6-2.1h-13.2c-2.2 0-2.7.2-3.3 2l-24.9 64.8-3.4-.5m31-72c-.6 2-.5 2.2 2 2.2h10.7c2.5 0 2.7-.4 2-2.8l-4.8-14.2a59 59 0 0 0-2-5.5h-.2a54 54 0 0 0-2 5.1l-5.6 15.3zM228.2 212.2c-4.7-6.8-5.9-9.3-8.6-13.2-1.3-2-2.7-2.8-6.2-2.8-4 0-4.1 0-4.1 1.9v11c0 9.2.1 10.3 5.2 11l1.8.2c.6.5.4 2-.1 2.2a227.3 227.3 0 0 0-21.4 0c-.5-.2-.7-1.6-.2-2.2l2.2-.2c5.1-.6 5.3-1.8 5.3-11v-31.4c0-8.3-.3-9.8-3.9-10.2l-2.8-.4c-.6-.4-.6-1.8.1-2.2 5-.4 11-.7 19.5-.7 5.5 0 10.6.5 14.7 2.6a13 13 0 0 1 7.2 12.3c0 8.3-6.5 12.9-11 14.6-.4.5 0 1.4.5 2.1 15 23.6 39.8 68 65.2 68 41.3 0 37.7-38.2 20.7-38.2-6.9 0-4 7.9-9.6 7.9-3.4 0-5.1-10 9.6-10 19.8 0 22.8 42.3-20.7 42.3-31.3 0-45.9-28.1-63.4-53.6zm-19-22c0 1.6 0 2.6.3 3 .3.2 1.6.3 6 .3 3.2 0 6.5-.3 9-2.2 2.4-1.9 4.4-5 4.4-10.9 0-6.9-4.2-13.5-14-13.5-5.4 0-5.6.4-5.6 2.8v20.5zM82 374.4c0-9-.2-10.4-5.4-11l-1.4-.2c-.5-.3-.3-1.9.2-2.1l10.3.2h16.5c5.6 0 10.7 0 11.8-.3.5 1.5 1 7.8 1.4 11.7-.4.5-1.8.7-2.2.2-1.3-4.1-2.1-7.2-6.7-8.3-1.8-.5-4.6-.6-8.5-.6h-6.3c-2.6 0-2.6.2-2.6 3.5v37.7c0 4.7.3 7.7 1.7 9.1 1 1 2.9 2 10.6 2 6.7 0 9.2-.3 11.2-1.3 1.6-.8 4-3.9 6.2-8.4.6-.5 1.8-.2 2.2.6-.6 3-2.8 9.8-4 12.1l-23.4-.2h-8c-3.7 0-6.6 0-11.8.2-.5-.2-.7-1.6-.2-2.2l2.9-.2c5-.5 5.4-1.8 5.4-11v-31.5z" class="st3"/><text transform="translate(244.6 419)" class="st3" font-family="AGaramondPro-Regular" font-size="87.5">I</text><path d="M413 410.1c0 3.5.5 5.6 2 6.3.3.2.3.7 0 1-1.1 0-2.7.4-4.3.8-4.7 1.2-11 2.3-15.7 2.3-10.4 0-20-3-26.7-9.7-5.3-5.3-8-12.2-8-19.9a30 30 0 0 1 7.8-20.7c5.9-6.2 14.5-10.3 27.8-10.3 5 0 9.6 1 11 1.3 1.7.4 4.5 1 5.5.8 0 3 .5 7.5 1.3 12.7-.2.7-1.8.8-2.3.3-2.5-9.5-9-12.5-18-12.5-17 0-24.4 12.1-24.4 25.2 0 16.8 8.7 30 26.3 30 5.4 0 8.6-1 9.6-2.6.4-.6.9-2.2.9-5v-3.5c0-7.3-.3-7.8-5.7-8.4l-3.9-.5c-.7-.3-.6-2 0-2.2a227 227 0 0 0 21.8 0c.6.4.7 1.7.1 2.2l-1.4.2c-3.7.4-3.7 2.9-3.7 7.3v5zM256.6 178.2c0-9.2-.2-10.7-5.3-11.2l-2.2-.1c-.5-.4-.4-2 .2-2.2a263.8 263.8 0 0 0 21.9 0c.5.2.7 1.8.1 2.2l-2.2.1c-5.1.5-5.3 2-5.3 11.2v31.2c0 9.3.2 10.5 5.3 11.1l2.2.3c.6.3.4 1.9-.1 2.2a262.8 262.8 0 0 0-22 0c-.5-.3-.6-1.7-.1-2.2l2.2-.3c5.1-.6 5.3-1.8 5.3-11.1v-31.2zM349.4 234.2c0 18.7 12.6 29.6 33.9 29.6 13.8 0 30-11 30-25.2 0-8.3-6.7-2.6-6.7-9.3 0-4.2 8.9-5.4 8.9 9.3 0 12.3-14 27.2-32.2 27.2s-36-8.6-36-31.8c0-29.9 25.5-34.9 37-34.9a227 227 0 0 0 21.7 0c.6.4.7 1.7.1 2.2l-1.4.2c-3.7.4-3.8 2.9-3.8 7.3v5c0 3.4.6 5.5 2.1 6.2.3.2.3.7 0 1-1 0-2.7.4-4.3.8-4.7 1.2-11 2.3-15.7 2.3-10.4 0-20-3-26.7-9.7-5.3-5.3-8-12.2-8-19.9a30 30 0 0 1 7.8-20.7c5.9-6.2 14.6-10.3 27.8-10.3 5 0 9.6 1 11.1 1.3 1.7.4 4.4 1 5.4.8 0 3 .6 7.5 1.3 12.7-.2.7-1.8.8-2.3.3-2.5-9.5-9-12.5-18-12.5-17 0-24.4 12.1-24.4 25.2 0 16.8 8.7 30 26.3 30 5.4 0 8.6-1 9.6-2.6.4-.6.9-2.2.9-5v-3.5c0-7.3-.3-7.8-5.7-8.4l-3.9-.5c-17.7 0-34.8 11-34.8 33z" class="st3"/><path d="M374 179.4c30 0 34.1-49.2-8.1-49.2-33.4 0-36.5 30.1-36.5 56.7v18.7c0 1.9 0 3.3-.4 3.7h-.1c-4.2-4.2-8.4-9.1-14.5-15.8l-8.5-9.6c-2.9-3.2-13.2-14.8-15-19.2l-4 .2c-1.6 0-6.2 0-9.9-.2-.7.3-.7 1.6-.1 2.2l1.4.1c2.1.3 4.2 1 5.5 2.1 1.8 2 2 3.9 2 6.3v25.3c0 4.2 0 14.9-1.2 18-.5 1-1.9 1.5-3.9 1.8l-2.3.3c-.6.5-.5 1.7.1 2.1a147.1 147.1 0 0 1 19.4 0c.6-.4.7-1.4.2-2.1l-2.8-.3c-2.1-.2-3.9-.7-4.4-1.7-1.5-2.6-1.6-14-1.6-18v-19.2c0-2.6 0-4.6.4-5.7h.2c1.9 2 7.8 9.1 10.2 11.9l20.3 23c7.6 8.7 10.1 11.8 11.2 13.3 1 0 1.5-.4 1.6-1-.2-2.2-.2-12.7-.2-15.3V187c0-31.8 4.3-54.5 32.9-54.5 38.9 0 36 44.9 8.1 44.9-10.4 0-10.9-5.3-12.4-5.3-2.2 0-1.2 7.4 12.5 7.4zM83 209.1c0 9.2.5 10.5 5.4 11l2.6.2c.5.4.3 2-.2 2.2-4.7-.2-7.7-.2-11.1-.2l-10.2.2c-.5-.2-.7-1.6-.2-2.2l1.5-.2c5-1 5.1-1.8 5.1-11v-31.5c0-9.2-.6-10.7-5.2-11l-2.2-.2c-.6-.3-.4-1.9.1-2.2 4.3.1 7.3.3 11 .3 3.5 0 6.5-.1 10.2-.3.5.3.7 1.9.2 2.2l-1.7.2c-5 .5-5.2 1.8-5.2 11v31.5zM116.9 209.1c0 9.2 0 10.1-5.4 11l-1.6.2c-.5.6-.4 2 .2 2.2a228.6 228.6 0 0 1 21.1 0c.6-.2.7-1.8.2-2.2l-2-.2c-5.2-.6-5.3-1.8-5.3-11v-31.5c0-9.2.1-10.5 5.2-11l1.8-.2c.6-.3.4-1.9-.1-2.2a226.6 226.6 0 0 1-21 0c-.5.3-.7 1.9-.1 2.2l1.6.2c5.2.5 5.4 1.8 5.4 11v31.5zM228 382l-2 4.6-4.7 10.8c-3.5 8-7.6 18.2-9.1 22.8-.3.2-.6.3-1 .3s-.9-.1-1.3-.3c-1-3.7-2.5-8-4-11.6l-15.4-38c-2-5-3.4-6.8-7.1-7.2l-1.6-.2c-.6-.5-.5-1.7.2-2.2a133.6 133.6 0 0 0 19.7 0c.6.4.8 1.7.1 2.2l-1.3.2c-3.3.4-4 1-4 1.7 0 .8 1.6 5.6 4.3 12.2 4 10.2 8 20.2 12.4 30.2 2.7-5.8 6.4-14.8 8.4-19.4l2.6-6c19.9-43.3 34.1-53.2 55-53.2 24.6 0 24.1 24.1-4 24.1-29.6 0-65.5-22-116.6-22-48.8 0-39.9 44.7-16.1 44.7 7.1 0 8.9-2 8.9-3.6 0-1.7-2.4-.1-2.4-3.2 0-1.8 1.1-3.4 3.4-3.4 7.5 0 6 12.4-9.8 12.4-25.7 0-36.6-49 16-49 60.5 0 80.6 22 116.7 22 25.4 0 25.7-19.9 3.7-19.9-20 0-35.5 13.4-51 51z" class="st3"/><path d="M145.3 440.3v-45.4c0-1.8.2-1.9 4.1-1.9 3.5 0 5 .9 6.2 2.8 2.8 4 6.3 10 8.6 13.2 6.2 8.9 10.7 11 18.1 11 1.7 0 3.1-.1 3.9-.4.4-.3.3-1-.1-1.2-2.4-.2-4.5-1.2-6-2.5-6-5-10.6-12-17.6-23.3-.5-.7-1-1.5-.5-2 4.4-1.8 11-6.4 11-14.7 0-6.1-3-10-7.3-12.2a31 31 0 0 0-14.6-2.6c-8.6 0-14.6.2-19.5.7-.7.3-.7 1.7-.1 2.1l2.8.4c3.6.4 3.8 2 3.8 10.2v69.8c0 3.8-1.4 8.5-6.4 10.3-5 1.8-11 4.3-24 4.3s-21.9-9-21.9-15.5c0-4.8 5.3-2 5.3-5.9 0-1.7-.9-2.6-2.3-2.6-2.6 0-5 3.1-5 8.4 0 6.5 8.5 17.6 24.1 17.6 41.3 0 64.7-32.8 96.4-32.8 38 0 36.3 48 .4 48-15.6 0-21.3-6.7-21.3-11.9 0-2.4 2.4-1.7 2.4-4.8 0-3-5.7-4.4-5.7 3s8 16 24.7 16c38.7 0 39.9-52.4-.3-52.4-20 0-39 13-53.5 19.7-4.5 2-5.7-.8-5.7-5.4zm15.3-52.2c-2.5 2-5.8 2.3-9 2.3-4.4 0-5.8-.2-6-.5-.3-.3-.3-1.3-.3-2.8v-20.5c0-2.5.3-2.8 5.7-2.8 9.7 0 14 6.5 14 13.4 0 6-2 9-4.4 10.9z" class="st3"/><path d="M254.6 488.7c32.4 0 40.8-28 40.8-69.9v-40.7c0-2.7 0-4.7.4-5.8h.2l10.1 11.9 20.3 23c7.6 8.7 10.2 11.8 11.2 13.3 1 0 1.5-.4 1.7-1-.3-2.2-.3-12.7-.3-15.3v-21c0-4-.1-14.8 1.3-18 .4-.6 2.1-1.3 5-1.8l1.2-.1c.5-.6.5-1.8-.2-2.2a140.2 140.2 0 0 1-19.3 0c-.7.2-.8 1.6-.2 2.2l1.5.1c3.5.5 4.9 1 5.4 1.8 1.7 2.6 1.8 14 1.8 18V402c0 1.9 0 3.3-.4 3.7h-.2c-4-4.2-8.4-9.1-14.4-15.8l-8.5-9.6c-2.9-3.2-13.2-14.8-15-19.2l-4 .2c-1.6 0-6.2 0-9.9-.2-.7.3-.7 1.6-.2 2.2l1.5.1c2.1.3 4.2 1 5.5 2.1 1.8 2 1.9 3.9 1.9 6.3v47c0 46.5-10.3 67.8-37.2 67.8-48.3 0-50.1-49.8 2.6-49.8 34.4 0 58 24.3 81 24.3 20.2 0 24.1-11 24.1-20.8 0-7.7-8.3-6.8-8.3-2.3 0 4.6 4 2.3 4 9.1s-7.3 11.9-19.8 11.9c-22.1 0-43.2-24.3-80.9-24.3-55.6 0-53.9 54-2.7 54z" class="st3"/></g><g id="Layer_4"><path d="M4.3 48.4C4.3 58.4 9.2 68 24 68c26.5 0 63.7-21.4 82-21.4 14 0 17.5 8 17.5 12.4 0 4.7-5.4 2-5.4 7 0 2.8 8.1 3.3 8.1-6.8s-8.7-14.8-20.1-14.8c-18.2 0-59.8 21.5-82.1 21.5-15.4 0-17.6-13.6-17.6-17.5 0-7.2 6.5-16.9 16.6-16.9s14.5 7.7 14.5 15.8c0 30.6-19.5 61-19.5 84 0 5 2.9 7.5 5.3 7.5 0-3.5 28.4-42.9 36.9-64.2C60.2 89 43 127 43 135c0 6.2 4 8.1 7.6 8.1 0-12 44.5-61.4 44.5-93.7 0-11.7-2.8-16.2-8.7-16.2-6.6 0-8.1 7.9-3 7.9 3.8 0 1.2-4.7 4.4-4.7 2.3 0 5.2 3.4 5.2 13 0 18.6-20.4 49.6-34.2 70 2.9-9 11.7-34.3 11.7-46.8 0-5.5-7.9-7.5-11-7.5 0 6.2-14.3 31.2-29.2 54.6 0-8.9 16.1-42.6 16.1-65.4 0-20.8-15.4-25-23.6-25s-18.5 6.1-18.5 19z" class="st3"/><path d="M108 67.6c-9.3 0-45.6 52-13.4 52 11.4 0 47.1-52 13.3-52zm-19.3 48.2c-7 0 19.5-43.6 26.4-43.6 7 0-20.7 43.6-26.4 43.6zM218.8 275c-8.2 0-40 45.5-11.7 45.5 10 0 41.3-45.6 11.7-45.6zM201.8 317c-6 0 17.1-38.2 23.1-38.2 6.2 0-18.1 38.2-23 38.2zM182 67.7c-.8 2.2-8.4 9-8.4 20.2s-4 26.8-10.2 26.8c-2 0-3.5-1-3.5-3.1 0-4 2.3-4.3 2.3-7.3 0-1.2-.6-2-2-2-1.8 0-3 3.5-3 6.3 0 5.3 2.6 10.7 9.7 10.7 12 0 18-15.4 18-30.3 0-9 4.5-9.9 4.5-13.9 0-5.4-7.4-7.4-7.4-7.4zM172.3 274.8c-.6 2-7.4 8-7.4 18s-3.6 23.8-9 23.8c-1.9 0-3.2-1-3.2-2.8 0-3.5 2-3.7 2-6.4 0-1-.5-1.8-1.7-1.8-1.6 0-2.7 3-2.7 5.5 0 4.8 2.3 9.6 8.6 9.6 10.8 0 16-13.7 16-27 0-8 4-8.7 4-12.3 0-4.8-6.6-6.6-6.6-6.6z" class="st3"/><path d="M173.9 78.4c-7.6 9.4-30 37.7-32.5 37.7s9.2-16.9 9.2-23.1c0-6.3-4-4.8-4-11.3 0-6.6 1.7-5.2 1.7-12.1 0-3.3-11.2-.7-11.2-.7s-3.1 4.5-3.1 11.6c-12.2 27.7-27.2 35.8-27.2 38.1 0 1 1.5 1.4 3 1.4 6.7 0 24.7-35 27.4-35 1.2 0 3.1 1.9 3.1 6.2s-8.7 15.4-8.7 22.6c0 3.4 5.7 5.3 8.8 5.3 5.7 0 27.6-29 35.8-39.4 8-10.8 8.6-15-2.3-1.3zM263 300.3c-6.7 8.4-12.8 17.7-15 17.7s8.2-15.2 8.2-20.7-3.5-4.3-3.5-10.1 1.4-4.6 1.4-10.8c0-2.9-10-.6-10-.6s-2.8 4-2.8 10.4c-10.8 24.6-24.2 32-24.2 34 0 .8 1.3 1.2 2.7 1.2 6 0 22-31.3 24.4-31.3 1.1 0 2.8 1.7 2.8 5.6 0 3.8-7.7 13.7-7.7 20.1 0 3 5 4.8 7.7 4.8 5.2 0 10.8-9.8 18.2-19.1 7.2-9.6 7.6-13.4-2.1-1.2zM76 300.3C69.1 308.7 63 318 60.8 318s8.2-15.2 8.2-20.7-3.5-4.3-3.5-10.1 1.4-4.6 1.4-10.8c0-2.9-10-.6-10-.6s-2.8 4-2.8 10.4c-10.8 24.6-24.2 32-24.2 34 0 .8 1.3 1.2 2.7 1.2 6 0 22-31.3 24.4-31.3 1.1 0 2.8 1.7 2.8 5.6 0 3.8-7.7 13.7-7.7 20.1 0 3 5 4.8 7.7 4.8 5.2 0 10.8-9.8 18.2-19.1 7.1-9.6 7.6-13.4-2.2-1.2zM260.6 67.7c-.2-2.2 4.7-6.7 4.4-9.6-.3-2.8-5.6-7.3-5.6-7.3.3 3-4.8 7.2-4.4 11.5.3 2.8 3.1 5.6 5.6 5.4zM238.8 117c-.8 0-1.7-1.2-1.7-2.2 0-7.9 18.6-29.6 18.6-38.5 0-4.7-1.7-8-6.3-8 0 5.7-19.8 33.9-19.8 42.5 0 5.1 3.1 8.6 9.5 8.6 8.3 0 29.4-46.9 37.4-46.9s5-4.7 2.4-4.7c-11.4 0-34.2 49.2-40 49.2zM335.4 67.7c-.2-2.2 4.7-6.7 4.3-9.6-.2-2.8-5.5-7.3-5.5-7.3.3 3-4.8 7.2-4.4 11.5.3 2.8 3.1 5.6 5.6 5.4zM313.6 117c-.8 0-1.7-1.2-1.7-2.2 0-7.9 18.6-29.6 18.6-38.5 0-4.7-1.7-8-6.3-8 0 5.7-19.8 33.9-19.8 42.5 0 5.1 3.1 8.6 9.4 8.6 7.2 0 23.3-27.8 26.6-27.8 2.6 0 3.9-4.7 2.4-4.7-5.5 0-23.3 30.1-29.2 30.1z" class="st3"/><path d="M354.6 73.4c0-4.7-1.5-5.7-7-5.7 0 7.4-20.8 37-20.8 47.3 0 3.7 2.2 4.6 8 4.6 0-14.2 19.8-37.3 19.8-46.2z" class="st3"/><path d="M369 67.8c4.6 0 6.3 3.3 6.3 8 0 8.9-18.7 31.1-18.7 39 0 1 1 2.2 1.8 2.2 5.8 0 20.7-30.1 26.2-30.1 1.4 0 .1 4.7-2.5 4.7-3.2 0-16.4 27.9-23.5 27.9-6.3 0-9.5-3.5-9.5-8.7 0-9.2 14-26 14-30.1 0-1-.5-1.3-1.4-1-3.2 1-11.2 8.3-21.4 17.9 0 0-3-1-.3-3.4C351.9 83 369 71 369 67.8zM312.5 277.6c3.8 0 5.2 2.8 5.2 6.6 0 7.5-15.5 26-15.5 32.6 0 .9.8 1.9 1.4 1.9 5 0 17.3-25.2 21.9-25.2 1.2 0 .1 4-2 4-2.8 0-13.7 23.2-19.7 23.2-5.3 0-8-3-8-7.2 0-7.7 11.8-21.8 11.8-25.2 0-.8-.4-1-1.2-.7-2.7.8-9.3 6.8-17.8 14.8 0 0-2.5-.8-.3-2.8 9.9-9.3 24.2-19.3 24.2-22zM281.7 279.8c0-4.2-1.4-5-6.2-5 0 6.5-18.7 32.9-18.7 42 0 3.4 2 4.1 7.2 4.1 0-12.6 17.7-33.2 17.7-41.1z" class="st3"/><path d="M294.5 274.8c4 0 5.6 3 5.6 7.1 0 10.6-14.9 21.7-14.9 39-5.6 0-7.3-2.2-7.3-6.8 0-6.4 11.4-24.2 11.4-27.9 0-.8-.5-1-1.3-.8-2.9 1-10 7.4-19 16 0 0-2.7-1-.3-3.1 10.5-9.9 25.8-20.6 25.8-23.5zM226.5 67.8c4.6 0 6.3 3.3 6.3 8 0 8.9-18.6 31.1-18.6 39 0 1 1 2.2 1.7 2.2 5.8 0 23.7-30.1 29.2-30.1 1.5 0 .2 4.7-2.4 4.7-3.3 0-19.4 27.9-26.6 27.9-6.3 0-9.5-3.5-9.5-8.7 0-9.2 14-26 14-30.1 0-1-.5-1.3-1.4-1-3.2 1-11.1 8.3-21.3 17.9 0 0-3-1-.4-3.4 12-11.1 29-23.1 29-26.4zM275.4 72.3c1.5 0 2.2 1.3 2.2 2.9 0 9-23.2 39.7-23.2 50.3 0 7.5 5.3 8.2 5.3 8.2 0-5.8 6.3-16.9 12.2-28.4 0 10.2 4.6 14 10.9 14 8 0 27.3-29.5 27.3-44.8 0-2.8-3.6-6.7-8.8-6.7-8.4 0-12.7 6.6-18 14.3a22 22 0 0 0 2.4-7c0-6.8-6.1-7.3-6.1-7.3-4.8 0-7.3 4.5-4.2 4.5zM298 71c1.5 0 2.5.7 2.5 3.7 0 11.8-14.8 37.6-21.3 37.6-2.6 0-4.1-2.3-4.1-7.7 0-5.2 15.4-33.6 22.9-33.6zM406.8 82c0-10-4.5-14-10.9-14-8 0-27.3 29.6-27.3 44.8 0 2.9 3.6 6.8 8.8 6.8 8.4 0 12.8-6.6 18-14.3a22 22 0 0 0-2.4 6.9c0 6.8 19.7-41.7 13.8-30.2zm-26 34.5c-1.5 0-2.5-.8-2.5-3.7 0-11.8 14.8-37.6 21.3-37.6 2.6 0 4.1 2.2 4.1 7.6 0 5.2-15.4 33.7-22.9 33.7z" class="st3"/><path d="M191.9 119.7c-4.6 0-6.2-3.6-6.2-8.2 0-14.5 44.8-108.7 95.7-108.7 48.4 0 37.4 54.1 9 54.1-12.6 0-12.4-10.8-7.8-10.8 7.1 0 .7 8.7 7.9 8.7C316 54.8 327 5 281.5 5c-37 0-89.6 92.7-89.6 114.8z" class="st3"/><path d="M163.3 53.7c14 0 16.6-11.8 10.4-11.8-6.7 0 .4 9.6-10.9 9.6-22.4 0-25.6-41.9 11-41.9 39.6 0 62.6 31.3 85.4 31.3 24.3 0 28.7-25 14.6-25-8.3 0-10.7 8-4.6 8 3.9 0 3.3-5 6.6-5 8.6 0 3.2 19.9-16.3 19.9S213 7.5 173.7 7.5s-36.8 46.2-10.4 46.2zM333.1 160.2c55.7 0 72.2-56.5 87-92.2-3.7 0-7.8 0-9.6 3.9-7.5 15.8-29 86.1-77.4 86.1s-83.5-33.3-129-33.3c-34.7 0-40.2 10.9-40.2 19.1 0 4.6 4.7 8.5 8 8.5 4.3 0 6-6.5-.7-6.5-5.9 0-9-19 32.9-19s80.8 33.4 129 33.4zM341.9 274.8c-.2-2 4-6 3.8-8.5-.3-2.6-5-6.5-5-6.5.3 2.6-4.2 6.4-3.8 10.2.3 2.5 2.8 5 5 4.8zM322.5 318.5c-.7 0-1.5-1-1.5-2 0-7 16.5-26.2 16.5-34.1 0-4.1-1.5-7-5.6-7 0 5-17.6 30-17.6 37.6 0 4.6 2.8 7.7 8.4 7.7 6.4 0 20.7-24.7 23.6-24.7 2.3 0 3.4-4.2 2.1-4.2-4.8 0-20.7 26.7-25.9 26.7zM100.6 318.5c-.7 0-1.5-1-1.5-2 0-7 16.5-26.2 16.5-34.1 0-4.1-1.5-7-5.6-7 0 5-17.6 30-17.6 37.6 0 4.6 2.8 7.7 8.4 7.7 6.3 0 18.4-26.6 21.3-26.6 2.3 0 3.5-4.2 2.2-4.2-4.9 0-18.5 28.6-23.7 28.6z" class="st3"/><path d="M358.9 279.8c0-4.1-1.4-5-6.2-5 0 6.6-18.5 32.8-18.5 42 0 3.2 2 4 7 4 0-12.6 17.7-33 17.7-41z" class="st3"/><path d="M371.6 274.9c4.1 0 5.6 3 5.6 7 0 8-16.5 27.7-16.5 34.6 0 1 .8 2 1.5 2 5.2 0 18.4-26.7 23.3-26.7 1.2 0 0 4.2-2.2 4.2-2.9 0-14.5 24.7-20.9 24.7-5.6 0-8.4-3.1-8.4-7.7 0-8.1 12.5-23.1 12.5-26.7 0-.9-.5-1.1-1.4-.8-2.8.9-9.8 7.3-18.9 15.8 0 0-2.6-1-.3-3 10.6-9.9 25.7-20.6 25.7-23.4zM132.8 279.8c0-4.1-1.4-5-6.2-5 0 6.6-18.5 32.8-18.5 42 0 3.2 2 4 7 4 0-12.6 17.7-33 17.7-41zM55 262.5c0-4.1-1.3-5-6.1-5 0 11.7-44.3 62.2-44.3 81.6 0 3.3 2 4 7 4 0-18.8 43.5-69.3 43.5-80.6z" class="st3"/><path d="M145.5 274.9c4 0 5.6 3 5.6 7 0 8-16.5 27.7-16.5 34.6 0 1 .8 2 1.5 2 5.2 0 32.6-42.5 37.4-42.5 1.3 0 .1 4.2-2.2 4.2-2.8 0-28.6 40.5-35 40.5-5.6 0-8.4-3.1-8.4-7.7 0-8.1 12.4-23.1 12.4-26.7 0-.9-.4-1.1-1.3-.8-2.8.9-9.8 7.3-18.9 15.8 0 0-2.6-1-.3-3 10.5-9.9 25.7-20.6 25.7-23.4zM407 287.5c0-9-4-12.4-9.6-12.4-7.2 0-24.2 26.2-24.2 39.7 0 2.5 3.2 6 7.8 6 7.5 0 11.3-5.9 16-12.7-1.3 2.8-2.1 5-2.1 6.1 0 6.1 17.5-37 12.2-26.7zM384 318c-1.3 0-2.1-.7-2.1-3.3 0-10.5 13-33.4 18.8-33.4 2.3 0 3.7 2 3.7 6.8 0 4.6-13.7 29.9-20.4 29.9zM105.2 287.5c0-9-4-12.4-9.6-12.4-7.2 0-24.2 26.2-24.2 39.7 0 2.5 3.1 6 7.7 6 7.5 0 11.4-5.9 16-12.7-1.3 2.8-2 5-2 6.1 0 6.1 17.4-37 12.1-26.7zm-23 30.6c-1.3 0-2.2-.7-2.2-3.3 0-10.5 13-33.4 18.9-33.4 2.2 0 3.6 2 3.6 6.8 0 4.6-13.7 29.9-20.3 29.9z" class="st3"/><path d="M331 375.6c30.2 0 72.8-83.1 79.4-97.1 1.6-3.4 5.2-3.5 8.4-3.5-13 31.7-51.2 102.8-87.7 102.8-35.4 0-41.2-43.7 2.7-43.7 26.9 0 36.6 11.8 56.7 11.8s26.6-5.9 26.6-12.1c0-8.9-7.2-2.8-7.2-8.6 0-3.3 9.2-7 9.2 8.4 0 11.5-14.2 14.3-28.7 14.3-21 0-32.8-11.7-56.5-11.7-40.9 0-35.7 39.4-2.8 39.4zM221.5 243c-19 0-45 86-61.9 93.3-.6.3-.5 1.1.1 1.2 4 .9 12.3.7 18.8-12.2 11.6-23 38-79.8 45.2-79.8 4.8 0 3 5 5 5 1.6 0 .4-7.5-7.2-7.5z" class="st3"/><g><path d="M187 278h21.7M208.7 279.2H187c-.7 0-1.2-.5-1.2-1.2s.5-1.2 1.2-1.2h21.7c.6 0 1.2.5 1.2 1.2s-.6 1.2-1.2 1.2z" class="st3"/></g><path d="M44.6 250.5c27.6 0 59.4 15.8 89 15.8s36.3-11 36.3-16.7c0-4.5-4.5-3.2-4.5-7.3 0-5.2 8.1-5.3 8.1 5.5 0 12.2-15 21.3-40.2 21.3-38.7 0-60-11.2-89-11.2-27.7 0-33 6.4-33.8 15.1 0 .8-1.2 1-1.5.2-2-7-2.5-22.7 35.6-22.7z" class="st3"/></g><g id="Layer_5" class="st0"><path d="M246.6 824c30 0 40.8-18 40.8-59.9v-40.7c0-2.7 0-4.7.4-5.8h.2l10.1 11.9 20.3 23c7.6 8.7 10.2 11.8 11.2 13.3 1 0 1.5-.4 1.7-1-.3-2.2-.3-12.7-.3-15.3v-20.9c0-4-.1-14.9 1.3-18 .4-.7 2.1-1.4 5-1.9l1.2-.1c.5-.6.5-1.8-.2-2.2a140.2 140.2 0 0 1-19.3 0c-.7.2-.8 1.6-.2 2.2l1.5.1c3.5.5 4.9 1 5.4 1.8 1.7 2.6 1.8 14 1.8 18.1v18.7c0 1.9 0 3.3-.4 3.7h-.2c-4-4.2-8.4-9-14.4-15.8l-8.5-9.6c-2.9-3.2-13.2-14.8-15-19.2-1.1.2-2.6.2-4 .2-1.6 0-6.2 0-9.9-.2-.7.3-.7 1.6-.2 2.2l1.5.1c2.1.3 4.2 1 5.5 2.1 1.8 2 1.9 3.9 1.9 6.3v47c0 46.5-14 57.3-37 57.3-44.8 0-49.4-38.4 2.4-38.4 34.4 0 57.9 23.6 81 23.6 20 0 24.2-11.3 24.2-21 0-7.6-8.3-6.8-8.3-2.3 0 4.6 3.9 2.3 3.9 9.1s-7.7 11.4-20.2 11.4c-22.1 0-43-23.7-80.7-23.7-55.6 0-52.3 44-2.5 44zM13.8 787.2c0 4.8 3.6 19.8 36.5 19.8s47.4-33.5 78.3-33.5 27.3 35.8.7 35.8-28.8-31.6-28.8-52.7v-40.7c0-2.7 0-4.7.4-5.8h.2c1.9 2 7.8 9.1 10.2 11.8l20.3 23.1c7.6 8.7 10.1 11.8 11.2 13.3 1 0 1.5-.5 1.6-1-.2-2.3-.2-12.7-.2-15.3v-21c0-4-.2-14.8 1.3-18 .3-.7 2-1.4 4.9-1.8l1.2-.2c.5-.5.5-1.7-.2-2.2a140.2 140.2 0 0 1-19.3 0c-.7.3-.8 1.7-.2 2.2l1.5.2c3.5.4 5 1 5.5 1.7 1.6 2.7 1.7 14 1.7 18.2v18.7c0 1.8 0 3.2-.3 3.7h-.2c-4.1-4.2-8.4-9.1-14.5-15.9l-8.4-9.5c-3-3.2-13.3-14.8-15-19.3-1.2.2-2.6.3-4 .3-1.6 0-6.3 0-10-.3-.6.4-.6 1.7-.1 2.2l1.5.2c2 .3 4.2.9 5.4 2.1 1.8 2 2 3.9 2 6.3v47c0 18.2.1 56.2 31.6 56.2s34.8-43.2.4-43.2-43.6 33.2-78.4 33.2-31.2-12.7-31.2-16.3 43.3-25.4 43.3-3 7.8 9.8 7.8 0-56.7-27-56.7 3.7z" class="st6"/><path d="M611 142.7c-2 0-8.5 13.3-15.2 13.3-4.7 0-7.3-3.4-7.3-9.2 0-20.4 21.8-38.3 25-38.3 3.4 0 3.8 5.5.7 12s6.3 8 6.3 8c5.7-15 5-23.4-11-23.4-11.1 0-29.9 22-29.9 39.8 0 9.3 5.5 14 15.1 14 7.4.1 21.1-16.2 16.3-16.2zM778 115.3c-.3-1.9 3.8-5.7 3.6-8-.3-2.4-4.7-6.2-4.7-6.2.2 2.5-4 6-3.7 9.6.3 2.4 2.6 4.8 4.7 4.6zM748.8 115.3c-.7 1.9-4.3 5.8-6.8 13.4-6 6.7-19.2 11.2-19.2 13.3 0 .7.5 1.2 1.2 1.2 2.4 0 17.7-10.8 17.7-10.8 0 10.3-3.4 22.7-8.6 22.7-1.8 0-3-.9-3-2.7 0-3.3 2-3.5 2-6.1 0-1-.6-1.7-1.8-1.7-1.4 0-2.5 3-2.5 5.3 0 4.5 2.2 9.1 8.2 9.1 10.3 0 15.3-13.1 15.3-25.7 0-7.6 3.8-8.3 3.8-11.7 0-4.7-6.3-6.3-6.3-6.3zM648.7 139c-.5.5-1.2 1.3-1.9 2.4-5.8 8.3-10.8 15.1-12.9 15.1-2 0 7.7-14 7.7-19.3s-3.3-4-3.3-9.4c0-5.5 1.3-4.3 1.3-10.1 0-2.7-9.3-.6-9.3-.6s-2.6 3.8-2.6 9.7c-10.1 23.1-22.7 30-22.7 31.8 0 .8 1.3 1.1 2.5 1.1 5.6 0 20.6-29.2 22.9-29.2 1 0 2.6 1.6 2.6 5.2s-7.2 12.9-7.2 18.9c0 2.8 4.7 4.4 7.3 4.4 2.5 0 9.6-7.8 13.5-13.2 6.7-9 4.9-10.7 2-6.9z" class="st7"/><path d="M656 156.3c-2 0-3-1-3-3.3 0-2.8 1.8-7.5 4.2-12.3h.3c7 0 21-7 21-16.1 0-3.4-4.7-8.3-7.9-8.3-7.9 0-17.5 11.8-21.9 22.8l-2 6.8c-.3 1.3-.5 2.6-.5 3.8 0 5 1.9 9.4 8.4 9.4 6.8 0 13.1-8.9 21.1-18.9l2.3-5.3c-6 6.8-16.6 21.4-22 21.4zm17.6-35.4c4.3 0-10.1 17.3-15.2 17.7 4.8-8.8 11.6-17.7 15.2-17.7z" class="st7"/><path d="M683 156.3c-1.8 0-2.8-1-2.8-3.3 0-2.8 1.7-7.5 4.2-12.3h.2c7.1 0 21-7 21-16.1 0-3.4-4.7-8.3-7.8-8.3-8 0-17.6 11.8-22 22.8l-2 6.8c-.3 1.3-.5 2.6-.5 3.8 0 5 1.9 9.4 8.4 9.4 6.8 0 18-14 26-24l2.2-5.3c-6 6.7-21.4 26.5-26.9 26.5zm17.7-35.4c4.3 0-10.1 17.3-15.2 17.7 4.8-8.8 11.6-17.7 15.2-17.7zM825.2 156.3c-1.9 0-2.9-1-2.9-3.3 0-2.8 1.7-7.5 4.2-12.3h.2c7.2 0 21.1-7 21.1-16.1 0-3.4-4.7-8.3-7.9-8.3-8 0-17.5 11.8-22 22.8l-2 6.8c-.3 1.3-.4 2.6-.4 3.8 0 5 1.8 9.4 8.4 9.4 6.8 0 16.1-8.1 19.7-12.8s2.3-5.2 2.3-5.2c-6 6.7-15.2 15.2-20.7 15.2zm17.6-35.4c4.4 0-10 17.3-15.2 17.7 4.8-8.8 11.7-17.7 15.2-17.7z" class="st7"/><path d="M704 139.7a50.7 50.7 0 0 0-5.7 13.3c0 5.7 5 6.1 5 6.1 0-3 3.3-10 7.3-18 .6 4 2.8 10 3.9 13.3 1.6 4.6 6.8 4.6 7.7 4.6 1.6 0-4.7-13-5.7-21 7.8-4.3 20.3-12.1 20.3-17 0-4.8-4.7-4.8-4.7-4.8 0 3.8-11.5 11.5-16.2 14.5 5-9.7 9.5-18.8 9.5-22.3 0-6.3-4.4-6.8-4.4-6.8 0 6.2-7.2 20-13.5 31.8M779.7 136l-.7.9c-3.2 4.5-16.6 20.2-19.7 20.2-.7 0-1.5-1-1.5-1.9 0-6.6 15.6-24.9 15.6-32.3 0-4-1.4-6.7-5.2-6.7 0 4.8-16.7 28.4-16.7 35.7 0 4.3 3.1 7.2 6.2 7.2 7 0 16.7-13.2 20.4-17.7 5.1-7.5 1.6-5.3 1.6-5.3z" class="st7"/><path d="M618.8 2.5c4.6 0 6.3 3.3 6.3 8 0 8.8-18.6 31-18.6 39 0 1 1 2.2 1.7 2.2 5.8 0 23.7-30.2 29.2-30.2 1.4 0 .1 4.7-2.5 4.7-3.2 0-19.3 27.9-26.5 27.9-6.3 0-9.5-3.5-9.5-8.6 0-9.2 14-26.1 14-30.2s-11.2 5.4-21.9 17c0 0-2.8-.8-.3-3.3a613 613 0 0 1 28.1-26.5z" class="st6"/><path d="M818.9 138c-2 2.7-13 17.4-15.5 17.4-1.3 0-1.9-1-1.9-2.4 0-7.5 20.4-35.9 20.4-44.6 0-6.3-4.3-6.8-4.3-6.8 0 4.8-6.4 16.8-11.3 26.3-.8-4.6-6-11.6-9-11.6-6.8 0-22.7 18.2-22.7 37.2 0 2.4 3 5.6 7.3 5.6 7 0 10.6-5.5 15-11.9-1.3 2.7-2 4.7-2 5.8 0 5.7 5 6.1 5 6.1 6 0 14-11 17.6-15.5 5.3-8.2 1.4-5.5 1.4-5.5zm-34.2 18.6c-1.3 0-2-.7-2-3.1 0-9.8 12.2-29.7 17.6-29.7 2.1 0 3 1.8 3 4.4 0 4.3-12.4 28.4-18.6 28.4z" class="st7"/><path d="M671.7-3.4c0 8.5 2 12.6 8.3 12.6 10.8 0 25.1-24.5 25.1-26.9 0-4.3-17.1 25.2-24.3 25.2-7.1 0 17.2-46.4 21.5-46.4 4 0 4.7 3.4 4.3 7.4-.3 4-1.7 8.5-1.7 10.8 0 4.6 3.2 1.5 3.2-4.1s3.7-18-10.4-18c-10 0-26 33.8-26 39.4zM998.6-53.4c0 1.7.3 6-3.8 15.6 0 0 .4-15.2-9.1-15.2-11.1 0-40.1 51.8-20.2 51.8 11 0 14.8-8.4 19.5-14.6-11 20.3-30.5 51-63.6 51-56.7 0-90.5-31.8-126.6-31.8-48.7 0-43.5 28-33.8 28 2 0 3.7-.8 3.7-2.9 0-5.4-6.8.5-6.8-7.6 0-5 6.5-15.1 36.5-15.1 38.4 0 64.8 31.4 126.8 31.4 56.5 0 74.8-56 84-77.8 3.2-7.4-1.4-12.8-6.6-12.8zM970.2-5.2c-10.9 0 9.2-39.8 18.5-39.8 3.1 0 4.2 5.7 4.2 10.8-6.5 14-15.7 29-22.7 29zM1043.2-54.6c10.7 0 10.3 8.7 8.6 8.7-2.6 0 .3-6.3-6.7-6.3-8.7 0-27.4 42.3-40.7 67.5-4.1 7.8-8.7 9.7-14 9.7 24.1-41.3 33.6-79.6 52.8-79.6zM639 225.6c-37 0-33.6 62.2 7.6 62.2s58.5-27.3 94.9-27.3c27.3 0 21.5 21.7 9.6 21.7-6.5 0-.6-6.5-5.8-6.5-3.6 0-4 8.2 5.8 8.2 13.8 0 21.9-25-9.6-25.1-46 0-69.8 22.4-95 22.4-40.3 0-39.4-53.4-7.9-53.4 13 0 5.8 11 13 11 2 0 3-2.1 3-4 0-5.3-7-9.2-15.6-9.2z" class="st6"/></g></svg>